<svg xmlns="http://www.w3.org/2000/svg" viewBox="0 0 188 31">
  <g class="logo-uwhealth">
    <path fill="#c5050c" class="logo-uwhealth__uw" d="M58.4,1.91v.76a2.17,2.17,0,0,1,2.28,2.06,2.09,2.09,0,0,1,0,.25c0,1.56-3.54,13.62-3.54,13.62S52.32,4.83,51.47,1.91H45.14c-1,3.19-6,17.07-6,17.07l-4-13a4.48,4.48,0,0,1-.32-1.65c0-1,1-1.64,2.41-1.64V1.91H22.56v.76a2.42,2.42,0,0,1,1.83.54c.61.8.66,2.79.66,7.73v8c0,4.05-.44,9.22-6.36,9.22-6.57,0-6.38-4.89-6.38-7.89V5.52c0-2.3.36-2.86,2.31-2.86V1.91H.64v.76c2.46,0,2.3,1.3,2.3,5.62V21.13c0,5.29,3.84,9.1,12.32,9.1,8,0,12-3.58,12-11.13V10.21c0,.15.09.3.14.45l6,19.27h4L44.63,9.18h.08l7.1,20.75H56S63.1,6.33,63.57,4.65a2.43,2.43,0,0,1,2.41-2V1.91Z"/>
    <path fill="#065dba" class="logo-uwhealth__health" d="M84.06,11.63H76.23V1.9H67.87v28h8.37V18.82h7.83V29.93h8.37V1.9H84.06Zm20.45-2.58c-6.23,0-10.42,4.82-10.42,10.75,0,6.79,4.76,10.64,11.07,10.64,4.49,0,8.63-2,10.15-6.44h-7a3.71,3.71,0,0,1-3.15,1.45c-2.36,0-3.65-1.65-3.84-4h14.45C115.73,13.56,112.35,9.05,104.51,9.05Zm-3.2,8.39a.28.28,0,0,1,0-.09A3.6,3.6,0,0,1,105.19,14h.14a3.29,3.29,0,0,1,3.17,3.41Zm36.22,7.93V17c0-3.92.08-8-9.35-8a15.83,15.83,0,0,0-6.73,1.18,5.92,5.92,0,0,0-3.43,5.5h7c0-.86.5-2.08,2.82-2.08,1.21,0,2.47.51,2.47,1.89s-1,1.6-2.05,1.8c-3.85.74-11.15.51-11.15,6.94,0,4.28,3.16,6.16,7,6.16,2.44,0,4.75-.55,6.35-2.43h.08a5.69,5.69,0,0,0,.27,1.92h7.68A8.45,8.45,0,0,1,137.53,25.37Zm-10.38.48A2.18,2.18,0,0,1,124.8,24c0-1.37.87-1.81,2.54-2.2a12.32,12.32,0,0,0,3-1v2.16A3,3,0,0,1,127.15,25.85Zm13.39,4.08h7.53V1.9h-7.53ZM160.9,3.36h-7.53v6.2H150v4.78h3.35v9.73c0,5.58,3.54,6.09,6.73,6.09,1.6,0,3.31-.24,4.83-.24V24a14,14,0,0,1-1.71.11c-1.9,0-2.32-.82-2.32-2.71v-7.1h4V9.56h-4ZM181.23,9a7.19,7.19,0,0,0-6.16,2.71H175V1.9h-7.52v28H175V19.17c0-3.25,1.71-3.92,3-3.92,2.2,0,2.47,1.64,2.47,4V29.93H188V16C188,11.28,184.77,9,181.23,9Z"/>
  </g>
</svg>
