<svg xmlns="http://www.w3.org/2000/svg" viewBox="0 0 65 65">
  <g class="icon-pin">
      <path class="icon-pin__pin"
        d="M32.5,8.5c10.09,0,18,8.16,18,18.57,0,10.65-9.4,18.72-16.26,24.61l-1.78,1.54-1.71-1.48c-6.86-5.9-16.25-14-16.25-24.67,0-10.41,7.91-18.57,18-18.57m0-4c-12.28,0-22,10-22,22.57,0,15.43,15.9,25.53,22,31.58,6.1-6.09,22-16.15,22-31.58,0-12.59-9.72-22.57-22-22.57Z"/>
      <path class="icon-pin__circle"
        d="M32.5,18.5a7,7,0,1,1-7,7,7,7,0,0,1,7-7m0-4a11,11,0,1,0,11,11,11,11,0,0,0-11-11Z"/>
  </g>
</svg>
