<svg id="icons" xmlns="http://www.w3.org/2000/svg" viewBox="0 0 64 64">
    <g class="icon-waiting">
        <path
            d="M34,34l.79-4.32L33,18H31L29.22,29.69,18.08,44.77l1.32,1.31ZM32,4.05v4A24,24,0,1,1,14.49,48.38l-2.93,2.74A28,28,0,1,0,32,4.05ZM10.32,17a2,2,0,0,0,1.26.45,2,2,0,0,0,1.55-.74,2,2,0,1,0-2.81.29Zm13.87-7.8a2,2,0,0,0,2-2,2,2,0,0,0-.59-1.42,2.48,2.48,0,0,0-.3-.25A2.31,2.31,0,0,0,25,5.38a2.65,2.65,0,0,0-.37-.12,2,2,0,0,0-2.39,2,2,2,0,0,0,2,2Zm-18,18.25a2,2,0,0,0-.27,4h.14a2,2,0,0,0,.13-4Zm5.38,16.24a2.72,2.72,0,0,0-.11-.38,1.63,1.63,0,0,0-.19-.34,1.79,1.79,0,0,0-.25-.31,2.07,2.07,0,0,0-2.82,0,1.79,1.79,0,0,0-.25.31,1.63,1.63,0,0,0-.19.34,1.82,1.82,0,0,0-.11.38,1.72,1.72,0,0,0,0,.39,2,2,0,0,0,.59,1.41,1.92,1.92,0,0,0,.65.44A2,2,0,0,0,11,45.52a2,2,0,0,0,.59-1.41A1.72,1.72,0,0,0,11.56,43.72Z"/>
    </g>
</svg>
