<svg xmlns="http://www.w3.org/2000/svg" width="64" height="64" viewBox="0 0 64 64"><defs><style>.a{fill:#fff;opacity:0;}.b{fill:#065dba;}</style></defs><g transform="translate(-1036.051 12.191)"><rect class="a" width="64" height="64" transform="translate(1036.051 -12.191)"/><path class="b" d="M23.232,2c6.915,0,7.734.026,10.465.151a14.335,14.335,0,0,1,4.809.892A8.025,8.025,0,0,1,41.485,4.98a8.024,8.024,0,0,1,1.937,2.978,14.332,14.332,0,0,1,.892,4.809c.125,2.731.151,3.55.151,10.465s-.026,7.734-.151,10.465a14.332,14.332,0,0,1-.892,4.809,8.576,8.576,0,0,1-4.915,4.915,14.332,14.332,0,0,1-4.809.892c-2.731.125-3.55.151-10.465.151s-7.735-.026-10.465-.151a14.33,14.33,0,0,1-4.809-.892A8.023,8.023,0,0,1,4.98,41.485a8.024,8.024,0,0,1-1.937-2.978A14.331,14.331,0,0,1,2.151,33.7C2.026,30.967,2,30.148,2,23.232s.026-7.734.151-10.465a14.332,14.332,0,0,1,.892-4.809A8.024,8.024,0,0,1,4.98,4.98,8.025,8.025,0,0,1,7.958,3.043a14.334,14.334,0,0,1,4.809-.892C15.5,2.026,16.317,2,23.232,2Zm.051,7.975A13.309,13.309,0,1,0,36.593,23.284,13.309,13.309,0,0,0,23.284,9.975Zm0,21.948a8.639,8.639,0,1,1,8.639-8.639A8.639,8.639,0,0,1,23.284,31.923Zm16.8-22.565A3.083,3.083,0,1,0,37,12.441,3.083,3.083,0,0,0,40.087,9.358Z" transform="translate(1045.051 -3.191)"/></g></svg>