<svg xmlns="http://www.w3.org/2000/svg" width="64" height="64" viewBox="0 0 64 64"><defs><style>.a{fill:#fff;opacity:0;}.b{fill:#065dba;}</style></defs><g transform="translate(-1260.051 12.191)"><rect class="a" width="64" height="64" transform="translate(1260.051 -12.191)"/><path class="b" d="M54.7,8.181a46.548,46.548,0,0,1,1.03,8.447l.1,5.15-.1,5.15a47.1,47.1,0,0,1-1.03,8.55,7.311,7.311,0,0,1-5.047,4.944q-2.678.721-12.567,1.03l-9.374.1-9.374-.1q-9.889-.309-12.567-1.03A7.311,7.311,0,0,1,.719,35.478a47.1,47.1,0,0,1-1.03-8.55l-.1-5.15q0-2.266.1-5.15A46.548,46.548,0,0,1,.719,8.181,7.2,7.2,0,0,1,5.766,3.133Q8.445,2.412,18.333,2.1L27.707,2l9.374.1q9.889.309,12.567,1.03A7.2,7.2,0,0,1,54.7,8.181ZM21.939,30.224l14.73-8.447-14.73-8.344Z" transform="translate(1264.465 -2.191)"/></g></svg>