<svg xmlns="http://www.w3.org/2000/svg" width="64" viewBox="0 0 64 64">
    <g class="icon-social-twitter">
        <path
            fill="#065dba"
            d="M51 22.8a5.6 5.6 0 01.1 1.2 27.8 27.8 0 01-3.3 13 26.8
                26.8 0 01-9.4 10.6A27 27 0 0123 52 27.3 27.3 0 018
                47.6h2.3a19.5 19.5 0 0012.3-4.1 9.2 9.2 0 01-5.7-2 9.8 9.8 0
                01-3.5-4.8l1.8.1a12.5 12.5 0 002.6-.3 10 10 0 01-5.6-3.4 9.4 9.4 0
                01-2.2-6.2v-.2a9.3 9.3 0 004.4 1.3 11 11 0 01-3.2-3.6 9.5 9.5 0
                01.2-9.6 27.1 27.1 0 009 7.3 27.3 27.3 0 0011.2 3 13.7 13.7 0
                01-.2-2.3 9.8 9.8 0 011.4-4.9 9.6 9.6 0 013.5-3.6 9.5 9.5 0 014.9-1.3 9.4 9.4
                0 014 .8 11.1 11.1 0 013.2 2.3 20 20 0 006.3-2.3 9.8 9.8 0 01-4.3 5.4 21.1 21.1
                0 005.6-1.6 21.6 21.6 0 01-5 5.1z"
        />
    </g>
</svg>
