<svg xmlns="http://www.w3.org/2000/svg" width="64" viewBox="0 0 64 64">
    <g class="icon-social-instagram">
         <path fill="#065dba"
            d="M32.2 11c7 0 7.8 0 10.5.2a14.3 14.3 0 014.8.8 8 8 0 013 2 8 8 0 012 3 14.3 14.3 0 01.8 4.8c.1 2.7.2 3.5.2
            10.4l-.2 10.5a14.3 14.3 0 01-.9 4.8 8.6 8.6 0 01-4.9 5 14.3 14.3 0 01-4.8.8c-2.7.1-3.6.2-10.5.2l-10.4-.2a14.3
            14.3 0 01-4.8-.9 8 8 0 01-3-2 8 8 0 01-2-2.9 14.3 14.3 0 01-.8-4.8C11 40 11 39.1 11 32.2l.2-10.4A14.3 14.3 0
            0112 17a8 8 0 012-3 8 8 0 013-2 14.3 14.3 0 014.8-.8c2.7-.2 3.5-.2 10.4-.2zm0 8a13.3 13.3 0 1013.4 13.3A13.3
            13.3 0 0032.3 19zm0 22a8.6 8.6 0 118.7-8.7 8.6 8.6 0 01-8.6 8.6zm16.9-22.6a3 3 0 10-3.1 3 3 3 0 003-3z"
        />
    </g>
</svg>
