<svg xmlns="http://www.w3.org/2000/svg" width="64" height="64" viewBox="0 0 64 64"><defs><style>.a{fill:#fff;opacity:0;}.b{fill:#065dba;}</style></defs><g transform="translate(-924.051 12.191)"><rect class="a" width="64" height="64" transform="translate(924.051 -12.191)"/><path class="b" d="M43.031,11.125a5.585,5.585,0,0,1,.094,1.219,27.8,27.8,0,0,1-3.281,13.031,26.773,26.773,0,0,1-9.469,10.594,27.048,27.048,0,0,1-15.281,4.406A27.313,27.313,0,0,1,0,35.969q1.031.094,2.344.094a19.516,19.516,0,0,0,12.281-4.219,9.157,9.157,0,0,1-5.766-1.922,9.79,9.79,0,0,1-3.422-4.828q.938.094,1.781.094a12.5,12.5,0,0,0,2.625-.281,9.918,9.918,0,0,1-5.625-3.469,9.438,9.438,0,0,1-2.25-6.187v-.188a9.268,9.268,0,0,0,4.406,1.313,10.921,10.921,0,0,1-3.187-3.563,9.548,9.548,0,0,1,.188-9.656,27.144,27.144,0,0,0,8.953,7.312,27.25,27.25,0,0,0,11.3,3,13.664,13.664,0,0,1-.188-2.25A9.76,9.76,0,0,1,24.75,6.3a9.634,9.634,0,0,1,3.563-3.609,9.508,9.508,0,0,1,4.875-1.312,9.392,9.392,0,0,1,3.984.844,11.134,11.134,0,0,1,3.234,2.25,20.028,20.028,0,0,0,6.281-2.344,9.769,9.769,0,0,1-4.312,5.438A21.146,21.146,0,0,0,48,5.969,21.639,21.639,0,0,1,43.031,11.125Z" transform="translate(932.051 -0.566)"/></g></svg>