<svg xmlns="http://www.w3.org/2000/svg" width="64" viewBox="0 0 64 64">
 <g class="icon-social-linkedin">
    <path d="M19.3 55H9.7V24.3h9.6zm-4.8-35a5.3 5.3 0 01-3.9-1.6A5.3 5.3 0 019 14.5a5.3 5.3 0 011.6-3.9 5.3 5.3 0 014-1.6 5.3 5.3 0 013.8 1.6 5.3 5.3 0 011.7 4 5.3 5.3 0 01-1.7 3.8 5.3 5.3 0 01-3.9 1.7zM55 55h-9.5V40a16.6 16.6 0 00-.7-5.3 4.3 4.3 0 00-4.4-2.8 4.8 4.8 0 00-4.6 2.5 11.5 11.5 0 00-1 5.4V55h-9.5V24.3h9.2v4.2a8.2 8.2 0 013.4-3.4 10.1 10.1 0 015.7-1.6q6.7 0 9.3 4.2Q55 31 55 38.2z" fill="#065dba"/>
  </g>
</svg>
