<svg xmlns="http://www.w3.org/2000/svg" width="64" viewBox="0 0 64 64">
  <g class="icon-social-youtube">
    <path
        fill="#065dba"
        d="M59.1 18.2a46.5 46.5 0 011 8.4l.1 5.2v5.1a47.1 47.1 0 01-1
            8.6 7.3 7.3 0 01-5.1 5q-2.7.6-12.6 1H22.8q-10-.4-12.6-1a7.3 7.3
            0 01-5-5A47.1 47.1 0 014 36.9L4 31.8l.1-5.2a46.5 46.5 0 011-8.4
            7.2 7.2 0 015-5q2.8-.8 12.6-1.1l9.4-.1 9.4.1q9.9.3 12.6 1a7.2 7.2
            0 015 5zm-32.7 22L41 31.8l-14.7-8.4z"
    />
  </g>
</svg>
