<svg xmlns="http://www.w3.org/2000/svg" width="64" height="64" viewBox="0 0 64 64"><defs><style>.a{fill:#fff;opacity:0;}.b{fill:#065dba;}</style></defs><g transform="translate(-1148.051 12.191)"><rect class="a" width="64" height="64" transform="translate(1148.051 -12.191)"/><path class="b" d="M11.268,45.75H1.719v-30.7h9.549ZM6.545,10.839A5.33,5.33,0,0,1,2.643,9.2,5.33,5.33,0,0,1,1,5.295a5.33,5.33,0,0,1,1.643-3.9A5.33,5.33,0,0,1,6.545-.25a5.33,5.33,0,0,1,3.9,1.643,5.33,5.33,0,0,1,1.643,3.9,5.33,5.33,0,0,1-1.643,3.9A5.33,5.33,0,0,1,6.545,10.839ZM47,45.75H37.451V30.759a16.586,16.586,0,0,0-.616-5.339,4.322,4.322,0,0,0-4.415-2.772A4.81,4.81,0,0,0,27.8,25.112a11.462,11.462,0,0,0-1.027,5.442v15.2H17.326v-30.7h9.138v4.21h.1a8.206,8.206,0,0,1,3.286-3.388,10.123,10.123,0,0,1,5.75-1.643q6.674,0,9.344,4.21Q47,21.826,47,28.911Z" transform="translate(1156.051 -2.941)"/></g></svg>