<svg xmlns="http://www.w3.org/2000/svg" viewBox="0 0 64 64">
    <g class="icon-provider">
        <path
            class="icon-provider__provider"
            d="M51.87,45.1A22.49,22.49,0,0,0,39,35.31l-.07,0-.51-.13L37.64,
            35l-.76-.17c-.32-.07-.65-.12-1-.17l-.57-.1c-.46-.06-.92-.11-1.38-.14l-.23,
            0c-.57,0-1.14-.07-1.72-.07s-1.14,0-1.7.06l-.2,0c-.47,0-.94.09-1.4.15l-.6.09-1,
            .17-.8.18-.71.18-.52.13-.08.05A22.48,22.48,0,0,0,12.13,45.1a1,1,0,0,0,.1,
            1.18,8.88,8.88,0,0,0,2.22,1.83l15.19,8.77a4.74,4.74,0,0,0,4.72,0l15.19-8.77a8.88,8.88,0,0,0,
            2.22-1.83A1,1,0,0,0,51.87,45.1ZM26.69,36.92l.08,0c.4-.1.8-.18,1.2-.26l.84-.12.46-.07a22.83,
            22.83,0,0,1,5.48,0l.45.07.86.13.9.19.38.09.13,0c-.64,2.82-2.32,4-5.47,4s-4.78-1.22-5.44-4ZM34,
            49.5a2,2,0,1,1-2-2A2,2,0,0,1,34,49.5Zm14.51-3.12L33.36,55.15a2.75,2.75,0,0,1-2.72,0L15.45,
            46.38a6.65,6.65,0,0,1-1.2-.89,20.46,20.46,0,0,1,10.41-8A6.54,6.54,0,0,0,31,
            42.94V45.6a4,4,0,1,0,2,0V42.93a6.6,6.6,0,0,0,6.37-5.39,20.46,20.46,0,0,1,10.38,
            8A6.65,6.65,0,0,1,48.55,46.38ZM25.92,31.05l1.73,1a8.67,8.67,0,0,0,8.7,0l1.54-.91a13.73,13.73,
            0,0,0,6.77-11.81v0a12.17,12.17,0,0,0-6-10.45l-.18-.11a12.88,12.88,0,0,0-13,0,12.56,12.56,0,0,
            0-6.17,10.81A13.36,13.36,0,0,0,25.92,31.05Zm.61-20.56a10.79,10.79,0,0,1,10.94,0l.19.11a10.15,
            10.15,0,0,1,5,8.72v0a11.73,11.73,0,0,1-5.78,10.08l-1.54.91a6.6,6.6,0,0,1-6.68,0l-1.73-1a11.37,
            11.37,0,0,1-5.59-9.79A10.52,10.52,0,0,1,26.53,10.49Z"
        />
    </g>
</svg>
