<svg xmlns="http://www.w3.org/2000/svg" viewBox="0 0 64 64">
    <g class="icon-car">
        <path
            class="icon-car__headlights"
            d="M46,34H44a4,4,0,0,0,0,8h2a4,4,0,1,0,0-8ZM20,34H18a4,4,0,0,0,0,8h2a4,4,0,0,0,0-8Z"
        />
        <path
            class="icon-car__tires"
            d="M50,50v0M14,50v0m38-4H48a2,2,0,0,0-2,2v6a2,2,0,0,0,2,2h4a2,2,0,0,0,2-2V48a2,2,0,0,0-2-2ZM16,46H12a2,2,0,0,0-2,2v6a2,2,0,0,0,2,2h4a2,2,0,0,0,2-2V48a2,2,0,0,0-2-2Z"
        />
        <path
            class="icon-car__car"
            d="M53.73,26H53L50,13.65A2,2,0,0,0,48.08,12H15.92A2,2,0,0,0,14,13.65L11,26h-.71L6,33.4V42a8,8,0,0,0,8,8H50a8,8,0,0,0,8-8V33.4ZM17.54,16H46.46L48.9,26H15.1ZM54,42a4,4,0,0,1-4,4H14a4,4,0,0,1-4-4V34.47L12.58,30H51.42L54,34.47Z"
        />
        <path
            class="icon-car__mirrors"
            d="M53.42,23,52,25.46V28h4a2,2,0,0,0,2-2V23ZM6,23v3a2,2,0,0,0,2,2h4V26l-1.73-3Z"
        />
    </g>
</svg>
