<svg xmlns="http://www.w3.org/2000/svg" viewBox="0 0 64 64" fill="#065DBA">
  <g class="icon-hand-heart">
    <path
      d="M56.49,29.24a5.59,5.59,0,0,0-7.83-.18l-7.27,6a5.58,5.58,0,0,0-4.87-2.9H30.17l-4.66-.44a10.76,10.76,0,0,0-9.76,3.05l-9.37,8,9,14.19,7.2-4.8H41.85l14.8-15.4.08-.09A5.56,5.56,0,0,0,56.49,29.24Zm-2.78,4.84L40.15,48.2H21.39l-4.8,3.21-5-7.82,7-6a6.74,6.74,0,0,1,6.25-1.94L30,36h6.52a1.72,1.72,0,0,1,1.54,1.68l.06.25A2.11,2.11,0,0,1,36,40H27v4h9a6.11,6.11,0,0,0,5.72-4l9.53-7.9.12-.11a1.65,1.65,0,0,1,1.12-.45,1.57,1.57,0,0,1,1.2,2.54Z"
    />
    <path
      d="M42.91,7.22a6.85,6.85,0,0,0-7.78,0L32,9.3,28.87,7.22a6.85,6.85,0,0,0-7.78,0A7.48,7.48,0,0,0,18,14.29a8.15,8.15,0,0,0,3.63,6.77L32,28l10.41-6.94A8.15,8.15,0,0,0,46,14.29,7.48,7.48,0,0,0,42.91,7.22ZM40.19,17.73,32,23.19l-8.19-5.46c-2.06-1.51-2.58-5.49-.5-7.18a3.1,3.1,0,0,1,3.34,0c1,.62,5.35,3.56,5.35,3.56s4.39-2.94,5.35-3.56a3.1,3.1,0,0,1,3.34,0C42.77,12.24,42.25,16.22,40.19,17.73Z"
    />
  </g>
</svg>
