<svg xmlns="http://www.w3.org/2000/svg" xmlns:xlink="http://www.w3.org/1999/xlink"
    width="1920" height="1080"
    viewBox="0.5 1.48 89.29 51.78"
>
  <defs>
    <radialGradient id="gfx-video-overlay__gradient"
        cx="42.25" cy="26.64" r="31.33"
        gradientTransform="translate(2.89) scale(0.99 1)"
        gradientUnits="userSpaceOnUse"
    >
      <stop offset="0" stop-color="#0e485a"/>
      <stop offset="1" stop-color="#082340"/>
    </radialGradient>
  </defs>
    <rect x="0.5" y="1.48" width="100%" height="100%" opacity="0.59"
        fill="url(#gfx-video-overlay__gradient)"
        style="isolation: isolate"
    />
    <g stroke-miterlimit="10" stroke-width="0.05" fill="none">
        <path class="hex-bg-lg"
            d="M14.76,25.43H19l2.1,3.64L19,32.7H14.76l-2.1-3.63ZM2.13,32.7H6.34l2.11,3.64L6.34,40H2.13L0,36.34Zm12.63,0H19l2.1,3.64L19,40H14.76l-2.1-3.64ZM8.45,36.34h4.21L14.76,40l-2.1,3.63H8.45L6.34,40Zm12.63,0h4.21L27.4,40l-2.11,3.63H21.08L19,40Zm0,7.27h4.21l2.11,3.64-2.11,3.64H21.08L19,47.25Zm-6.32,3.64H19l2.1,3.64L19,54.53H14.76l-2.1-3.64Zm12.64,0h4.21l2.11,3.64-2.11,3.64H27.4l-2.11-3.64Zm19-3.64h4.21l2.11,3.64-2.11,3.64H46.35l-2.11-3.64ZM19,32.7h4.21l2.1,3.64L23.19,40H19l-2.11-3.64ZM6.34,40h4.22l2.1,3.63-2.1,3.64H6.34l-2.1-3.64ZM19,40h4.21l2.1,3.63-2.1,3.64H19l-2.11-3.64Zm-6.32,3.63h4.21L19,47.25l-2.11,3.64H12.66l-2.1-3.64Zm12.63,0H29.5l2.11,3.64L29.5,50.89H25.29l-2.1-3.64Zm19,3.64h4.21l2.11,3.64-2.11,3.64H44.24l-2.1-3.64Zm6.36-40h4.22l2.1,3.64-2.11,3.63H50.6l-2.1-3.63ZM38,14.54h4.21l2.11,3.64-2.11,3.64H38l-2.11-3.64Zm12.63,0h4.22l2.1,3.64-2.11,3.64H50.6l-2.1-3.64Zm-6.31,3.64H48.5l2.1,3.64-2.1,3.63H44.29l-2.11-3.63Zm12.63,0h4.21l2.1,3.64-2.1,3.63H56.92l-2.11-3.63Zm0,7.27h4.21l2.1,3.64-2.1,3.64H56.92l-2.11-3.64ZM50.6,29.09h4.22l2.1,3.64-2.11,3.63H50.6l-2.1-3.63ZM38,36.36h4.21L44.29,40l-2.11,3.64H38L35.86,40ZM31.65,40h4.21L38,43.64l-2.11,3.63H31.65l-2.11-3.63ZM63.23,29.09h4.22l2.1,3.64-2.1,3.63H63.23l-2.1-3.63ZM50.6,36.36h4.22L56.92,40l-2.11,3.64H50.6L48.5,40ZM44.29,40H48.5l2.1,3.64-2.1,3.63H44.29l-2.11-3.63ZM82.18,25.45h4.21l2.11,3.64-2.11,3.64H82.18l-2.1-3.64Zm-19,10.91h4.22L69.55,40l-2.1,3.64H63.23L61.13,40ZM44.29,47.27H48.5l2.1,3.64-2.1,3.63H44.29l-2.11-3.63ZM54.81,14.54H59l2.11,3.64L59,21.82H54.81L52.7,18.18ZM42.18,21.82h4.21l2.11,3.63-2.11,3.64H42.18l-2.11-3.64Zm12.63,0H59l2.11,3.63L59,29.09H54.81L52.7,25.45ZM48.5,25.45h4.2l2.11,3.64L52.7,32.73H48.5l-2.11-3.64Zm12.63,0h4.21l2.11,3.64-2.11,3.64H61.13L59,29.09Zm0,7.28h4.21l2.11,3.63L65.34,40H61.13L59,36.36Zm-6.32,3.63H59L61.13,40,59,43.64H54.81L52.7,40ZM42.18,43.64h4.21l2.11,3.63-2.11,3.64H42.18l-2.11-3.64Zm-6.32,3.63h4.21l2.11,3.64-2.11,3.63H35.86l-2.11-3.63ZM80.08,29.09h4.21l2.1,3.64-2.1,3.63H80.08L78,32.73Zm-6.32,3.64H78l2.11,3.63L78,40H73.76l-2.11-3.64Zm-6.31,3.63h4.2L73.76,40l-2.11,3.64h-4.2L65.34,40ZM54.81,43.64H59l2.11,3.63L59,50.91H54.81L52.7,47.27ZM48.5,47.27h4.2l2.11,3.64L52.7,54.54H48.5l-2.11-3.63ZM86.39,32.73h4.22l2.1,3.63L90.61,40H86.39l-2.1-3.64ZM67.45,43.64h4.2l2.11,3.63-2.11,3.64h-4.2l-2.11-3.64ZM10.6,3.66h4.21L16.92,7.3l-2.11,3.64H10.6L8.5,7.3ZM4.28,7.3H8.5l2.1,3.64L8.5,14.57H4.28l-2.1-3.63Zm19-3.64h4.22l2.1,3.64-2.1,3.64H23.23L21.13,7.3ZM16.92,7.3h4.21l2.1,3.64-2.1,3.63H16.92l-2.11-3.63ZM35.86,3.66h4.22l2.1,3.64-2.1,3.64H35.86L33.76,7.3ZM16.92,14.57h4.21l2.1,3.64-2.1,3.63H16.92l-2.11-3.63ZM33.76,0H38l2.11,3.63L38,7.3H33.76l-2.1-3.64ZM27.45,3.66h4.21l2.1,3.64-2.1,3.64H27.45L25.34,7.3ZM14.81,10.94H19l2.1,3.63L19,18.21H14.81l-2.1-3.64ZM8.5,14.57h4.21l2.1,3.64-2.1,3.63H8.5L6.39,18.21ZM46.39,0h4.22l2.1,3.63L50.61,7.3H46.39l-2.1-3.64ZM40.08,3.66h4.21l2.1,3.64-2.1,3.64H40.08L38,7.3ZM27.45,10.94h4.21l2.1,3.63-2.1,3.64H27.45l-2.11-3.64Zm-6.32,3.63h4.21l2.11,3.64-2.11,3.63H21.13L19,18.21ZM59,0h4.22l2.1,3.63L63.24,7.3H59l-2.1-3.64ZM40.08,10.94h4.21l2.1,3.63-2.1,3.64H40.08L38,14.57ZM21.13,21.84h4.21l2.11,3.64-2.11,3.64H21.13L19,25.48Z"
            stroke="#f7fbfc" opacity="0.1"
        />
        <path class="hex-bg-sm"
            d="M31.61,21.82h2.11l1.05,1.82-1.06,1.82h-2.1l-1.05-1.82Zm-6.32,3.64H27.4l1.05,1.82L27.4,29.1H25.29l-1.05-1.82Zm6.32,0h2.11l1.05,1.82L33.71,29.1h-2.1l-1.05-1.82Zm-3.16,1.82h2.11l1.05,1.82-1.05,1.82H28.45L27.4,29.1Zm6.32,0h2.1l1.05,1.82-1.05,1.82h-2.1L33.71,29.1Zm0,3.64h2.1l1.05,1.82-1.05,1.82h-2.1l-1.06-1.82Zm-3.16,1.82h2.11l1.05,1.82-1.06,1.81h-2.1l-1.05-1.81Zm-6.32,3.63H27.4l1.05,1.82L27.4,40H25.29l-1.05-1.82Zm-3.16,1.82h2.11L25.29,40l-1.05,1.82H22.13L21.08,40Zm15.79-5.45H40l1,1.82-1,1.81H37.92l-1.05-1.81Zm-6.31,3.63h2.11l1.05,1.82L33.71,40h-2.1l-1.05-1.82Zm-3.16,1.82h2.11L31.61,40l-1.05,1.82H28.45L27.4,40Zm19-7.27h2.1l1.06,1.82L49.5,34.56H47.4l-1-1.82Zm-9.48,5.45H40l1,1.82L40,40H37.92l-1.05-1.82Zm-9.47,5.46h2.11l1.05,1.82-1.05,1.81H28.45L27.4,43.65Zm5.26-16.37h2.11l1,1.82-1,1.82H33.71l-1.05-1.82ZM27.4,29.1h2.1l1.06,1.82L29.5,32.74H27.4l-1.06-1.82Zm6.31,0h2.11l1,1.82-1,1.82H33.71l-1.05-1.82Zm-3.15,1.82h2.1l1.05,1.82-1.05,1.82h-2.1L29.5,32.74Zm6.31,0H39L40,32.74,39,34.56H36.87l-1-1.82Zm0,3.64H39L40,36.37,39,38.19H36.87l-1-1.82Zm-3.16,1.81h2.11l1,1.82-1,1.82H33.71l-1.05-1.82ZM27.4,40h2.1l1.06,1.82L29.5,43.65H27.4l-1.06-1.82Zm-3.16,1.82h2.1l1.06,1.82-1.06,1.81h-2.1l-1.06-1.81Zm22.11-9.09h2.1l1,1.82-1,1.81h-2.1l-1.06-1.81Zm-3.16,1.82h2.1l1.06,1.81-1.06,1.82h-2.1l-1.06-1.82ZM40,36.37h2.1l1.06,1.82L42.13,40H40L39,38.19ZM33.71,40h2.11l1,1.82-1,1.82H33.71l-1.05-1.82Zm-3.15,1.82h2.1l1.05,1.82-1.05,1.81h-2.1L29.5,43.65ZM49.5,34.56h2.11l1,1.81-1,1.82H49.5l-1-1.82ZM40,40h2.1l1.06,1.82-1.06,1.82H40L39,41.83Zm-9.47,5.45h2.1l1.05,1.82L32.66,49.1h-2.1L29.5,47.28Zm19-32.72h2.11l1,1.82-1,1.82H49.52l-1.05-1.82Zm-6.31,3.64h2.1l1.06,1.82L45.31,20h-2.1L42.16,18.2Zm6.31,0h2.11l1,1.82-1,1.82H49.52L48.47,18.2ZM46.37,18.2h2.1L49.52,20l-1.05,1.81h-2.1L45.31,20Zm6.31,0h2.11L55.84,20l-1.05,1.81H52.68l-1-1.81Zm0,3.63h2.11l1.05,1.82-1.05,1.82H52.68l-1-1.82Zm-3.16,1.82h2.11l1,1.82-1,1.82H49.52l-1.05-1.82Zm-6.31,3.64h2.1l1.06,1.82-1.06,1.82h-2.1l-1.05-1.82Zm-3.16,1.82h2.11l1.05,1.82-1.05,1.81H40.05l-1-1.81Zm15.79-5.46H58l1,1.82-1,1.82H55.84l-1.05-1.82Zm-6.32,3.64h2.11l1,1.82-1,1.82H49.52l-1.05-1.82Zm-3.15,1.82h2.1l1.05,1.82-1.05,1.81h-2.1l-1.06-1.81Zm18.95-7.28h2.1l1.06,1.82-1.06,1.82h-2.1l-1.06-1.82Zm-9.48,5.46H58l1,1.82-1,1.82H55.84l-1.05-1.82Zm-9.47,5.45h2.1l1.05,1.82-1.05,1.82h-2.1l-1.06-1.82Zm5.26-16.36h2.11l1,1.82-1,1.82H51.63L50.58,18.2ZM45.31,20h2.11l1,1.81-1,1.82H45.31l-1.05-1.82Zm6.32,0h2.11l1,1.81-1,1.82H51.63l-1.05-1.82Zm-3.16,1.81h2.11l1.05,1.82-1.05,1.82H48.47l-1-1.82Zm6.32,0h2.1L58,23.65l-1.06,1.82h-2.1l-1-1.82Zm0,3.64h2.1L58,27.29l-1.06,1.82h-2.1l-1-1.82Zm-3.16,1.82h2.11l1,1.82-1,1.82H51.63l-1.05-1.82Zm-6.32,3.64h2.11l1,1.81-1,1.82H45.31l-1.05-1.82Zm-3.15,1.81h2.1l1.05,1.82-1.05,1.82h-2.1L41.1,34.56Zm22.1-9.09h2.11l1,1.82-1,1.82H64.26l-1.05-1.82ZM61.1,25.47h2.11l1.05,1.82-1.05,1.82H61.1l-1.05-1.82ZM58,27.29h2.1l1.05,1.82-1.05,1.82H58l-1.06-1.82Zm-6.32,3.64h2.11l1,1.81-1,1.82H51.63l-1.05-1.82Zm-3.16,1.81h2.11l1.05,1.82-1.05,1.82H48.47l-1-1.82Zm19-7.27h2.11l1,1.82-1,1.82H67.42l-1-1.82ZM58,30.93h2.1l1.05,1.81-1.05,1.82H58l-1.06-1.82Zm-9.48,5.45h2.11l1.05,1.82L50.58,40H48.47l-1-1.82ZM29.53,0h2.1l1.06,1.82L31.63,3.67h-2.1L28.47,1.85Zm6.31,0H38l1,1.82L38,3.67H35.84L34.79,1.85ZM32.69,1.85h2.1l1.05,1.82L34.79,5.48h-2.1L31.63,3.67Zm6.31,0h2.11l1,1.82-1,1.81H39L38,3.67Zm0,3.63h2.11l1,1.82-1,1.82H39L38,7.3ZM35.84,7.3H38l1,1.82-1,1.82H35.84L34.79,9.12Zm-6.31,3.64h2.1l1.06,1.82-1.06,1.82h-2.1l-1.06-1.82Zm-3.16,1.82h2.1l1.06,1.82-1.06,1.81h-2.1l-1.06-1.81ZM42.16,7.3h2.11l1,1.82-1.06,1.82h-2.1l-1-1.82Zm-6.32,3.64H38l1,1.82-1,1.82H35.84l-1.05-1.82Zm-3.15,1.82h2.1l1.05,1.82-1.05,1.81h-2.1l-1.06-1.81ZM51.63,5.48h2.11l1,1.82-1,1.82H51.63L50.58,7.3Zm-9.47,5.46h2.11l1,1.82-1.06,1.82h-2.1l-1-1.82Zm-9.47,5.45h2.1l1.05,1.82L34.79,20h-2.1l-1.06-1.82ZM31.63,3.67h2.11l1,1.81-1,1.82H31.63L30.58,5.48Zm6.32,0h2.1l1.06,1.81L40.05,7.3H38L36.89,5.48ZM34.79,5.48h2.1L38,7.3,36.89,9.12h-2.1l-1-1.82Zm6.32,0h2.1l1,1.82-1,1.82h-2.1L40.05,7.3Zm0,3.64h2.1l1,1.82-1,1.82h-2.1l-1.06-1.82ZM38,10.94h2.1l1.06,1.82-1.06,1.82H38l-1.06-1.82Zm-6.32,3.64h2.11l1,1.81-1,1.82H31.63l-1.05-1.82Zm-3.16,1.81h2.11l1.05,1.82L30.58,20H28.47l-1-1.82ZM50.58,7.3h2.1l1.06,1.82-1.06,1.82h-2.1l-1-1.82ZM47.42,9.12h2.11l1,1.82-1,1.82H47.42l-1.05-1.82Zm-3.16,1.82h2.11l1.05,1.82-1.05,1.82H44.26l-1-1.82ZM38,14.58h2.1l1.06,1.81-1.06,1.82H38l-1.06-1.82Zm-3.16,1.81h2.1L38,18.21,36.89,20h-2.1l-1-1.82Zm19-7.27h2.1l1.06,1.82-1.06,1.82h-2.1l-1.06-1.82Zm-9.48,5.46h2.11l1.05,1.81-1.05,1.82H44.26l-1-1.82ZM34.79,20h2.1L38,21.85l-1.06,1.82h-2.1l-1-1.82Z"
            stroke="#f7fbfc" opacity="0.25"
        />
        <path class="hex-foreground"
            d="M35.84,18.22h1l.53.91-.53.91h-1l-.53-.91ZM32.68,20h1l.53.91-.53.91h-1L32.15,21Zm3.16,0h1l.53.91-.53.91h-1L35.31,21ZM34.26,21h1.05l.53.91-.53.91H34.26l-.53-.91Zm3.16,0h1l.53.91-.53.91h-1l-.53-.91Zm-1.58,2.73h1l.53.91-.53.9h-1l-.53-.9Zm-3.16,1.81h1l.53.91-.53.91h-1l-.53-.91Zm-1.58.91h1l.53.91-.53.91h-1l-.53-.91Zm4.74-.91h1l.53.91-.53.91h-1l-.53-.91Zm-1.58.91h1.05l.53.91-.53.91H34.26l-.53-.91Zm0,1.82h1.05l.53.91-.53.91H34.26l-.53-.91ZM36.89,20h1l.53.91-.53.91h-1L36.36,21Zm-3.16,1.82h1.06l.52.91-.52.91H33.73l-.52-.91Zm3.16,0h1l.53.91-.53.91h-1l-.53-.91Zm-1.58.91h1l.53.91-.53.91h-1l-.52-.91Zm-1.58,4.54h1.06l.52.91-.52.91H33.73l-.52-.91Zm-1.58.91h1.06l.52.91-.52.91H32.15l-.52-.91Zm4.74-.91h1l.53.91-.53.91h-1l-.53-.91Zm-1.58.91h1l.53.91-.53.91h-1l-.52-.91Zm0,1.82h1l.53.91-.53.91h-1L34.79,31ZM49,13.67H48l-.53.91.53.91H49l.53-.91Zm3.16,1.82H51.13l-.52.91.52.91h1.06l.52-.91Zm-3.16,0H48l-.53.91.53.91H49l.53-.91Zm1.58.91h-1l-.53.91.53.91h1l.53-.91Zm-3.16,0H46.4l-.53.91.53.91h1.05l.53-.91Zm0,1.82H46.4l-.53.91.53.91h1.05l.53-.91Zm1.58.91H48l-.53.91L48,21H49l.53-.91ZM52.19,21H51.13l-.52.91.52.91h1.06l.52-.91Zm1.58.91H52.71l-.52.91.52.9h1.06l.52-.9ZM41.13,18.22l.53.91h1.05l.53-.91-.51-.88H41.65Zm3.16,0h-1l-.53.91.53.91h1l.53-.91ZM49,21H48l-.53.91.53.91H49l.53-.91Zm1.58.91h-1l-.53.91.53.9h1l.53-.9Zm-9.48-3.64H40.08l-.53.91.53.91h1.05l.53-.91Zm9.48,5.45h-1l-.53.91.53.91h1l.53-.91ZM48,15.49H46.92l-.52.91.52.91H48l.52-.91Zm3.16,1.82H50.08l-.52.91.52.91h1.06l.52-.91Zm-3.16,0H46.92l-.52.91.52.91H48l.52-.91Zm1.58.91H48.5l-.52.91.52.91h1.06l.52-.91Zm-5.81-.88-.51.88.53.91h1l.53-.91-.53-.91h-1l0,0Zm0,0h0l0,0h0Zm2.65.88h-1l-.53.91.53.91h1l.52-.91Zm0,1.82h-1l-.53.91.53.91h1l.52-.91ZM48,21H46.92l-.52.91.52.91H48l.52-.91Zm3.16,1.82H50.08l-.52.9.52.91h1.06l.52-.91Zm1.57.9H51.66l-.52.91.52.91h1.05l.53-.91ZM41.66,19.13h-1l-.53.91.53.91h1l.53-.91Zm7.9,4.54H48.5l-.52.91.52.91h1.06l.52-.91Zm0,1.82H48.5L48,26.4l.52.91h1.06l.52-.91ZM38,29.1h1l.52.91-.52.91H38L37.42,30Zm1.57.91h1.06l.52.91-.52.91H39.52L39,30.92Zm3.16,0h1l.53.91-.53.91h-1l-.52-.91Zm0,1.82h1l.53.91-.53.91h-1l-.52-.91Zm-1.58.91h1.06l.52.91-.52.91H41.1l-.52-.91ZM38,34.56h1l.52.91-.52.91H38l-.53-.91Zm-1.58.91h1.05l.53.91-.53.9H36.37l-.53-.9Zm12.12-4.53H47.41l-.52.89.53.91h1l.53-.91Zm-1.07,0v0h1.08l0,0Zm-1.58.91h1l.53.91-.53.91h-1l-.53-.91Zm-1.58.91h1.05l.53.91-.53.91H44.26l-.53-.91ZM41.1,34.56h1.06l.52.91-.52.91H41.1l-.52-.91Zm-1.58.91h1.06l.52.91-.52.9H39.52l-.52-.9ZM49,31.83h1l.53.91-.53.91H49l-.53-.91Zm-4.74,2.73h1.05l.53.91-.53.91H44.26l-.53-.91Zm-4.74,2.72h1.06l.52.91-.52.91H39.52L39,38.19ZM39,30.92h1l.53.91-.53.91H39l-.53-.91Zm3.16,0h1.05l.52.91-.52.91H42.16l-.53-.91Zm-1.58.91h1.05l.53.91-.53.91H40.58l-.53-.91Zm5.76-.89v0h-1l-.52.91.52.91h1.06l.52-.91-.51-.89Zm0,0h0v0h0Zm-2.64.91h1.06l.52.91-.52.91H43.73l-.52-.91Zm0,1.82h1.06l.52.91-.52.91H43.73l-.52-.91Zm-1.57.91h1.05l.52.91-.52.91H42.16l-.53-.91ZM39,36.38h1l.53.9-.53.91H39l-.53-.91Zm-1.58.9h1l.53.91-.53.91h-1l-.53-.91Zm11-4.54h1.05l.53.91-.53.91H48.47L48,33.65Zm-1.58.91H48l.52.91-.52.91H46.89l-.52-.91Zm-1.58.91h1.06l.52.91-.52.91H45.31l-.52-.91Zm-3.15,1.82h1.05l.52.9-.52.91H42.16l-.53-.91Zm-1.58.9h1.05l.53.91-.53.91H40.58l-.53-.91Zm9.47-3.63H51.1l.53.91-.53.91H50.05l-.53-.91Zm-4.74,2.73h1.06l.52.9-.52.91H45.31l-.52-.91ZM40.58,39.1h1.05l.53.91-.53.91H40.58L40.05,40Z"
            stroke="#f7fbfc" opacity="0.5"
        />
        <g class="gfx-video-overlay__button">
            <polygon points="45.34 20 38.99 20 35.81 25.5 38.99 30.99 45.34 30.99 48.52 25.5 45.34 20" fill="#065dba" stroke="#31c4f0" stroke-miterlimit="10" stroke-width="0.05"/>
            <polygon points="41.65 26.79 43.28 25.57 41.65 24.34 41.65 26.79" fill="#e2f7fa"/>
            <circle cx="42.21" cy="25.51" r="2.8" stroke="#e2f7fa" stroke-width="0.2"/>
        </g>
    </g>
</svg>
