<svg xmlns="http://www.w3.org/2000/svg" viewBox="0 0 64 64" fill="#065DBA">
  <g class="icon-microscope">
    <polygon class="icon-microscope__base" points="48 52 32 52 32 46 26 46 26 52 16 52 12 54.31 12 56 52 56 52 54.31 48 52"/>
    <path
      class="icon-microscope__curve" 
      d="M30,42l-4,2H23.34A8.51,8.51,0,0,1,16,39.75l-.86-1.5a8.49,8.49,0,0,1,0-8.5l.86-1.5a8.48,8.48,0,0,1,6-4.13v-4a12.5,12.5,0,0,0-9.48,6.18l-.84,1.45a12.52,12.52,0,0,0,0,12.53l.84,1.45A12.52,12.52,0,0,0,23.37,48h6.82L42,48a6.66,6.66,0,0,0,3.67-1.1A5.2,5.2,0,0,0,48,42.57V42Z"
    />
    <path
      d="M33.58,14.05l4,14.84-.54.88L36.31,31l-.13.22L36,31.12l-1.3-.69-.9-.49-.1-.36-1.07-3.93-.67-2.5A7.24,7.24,0,0,0,32,22a7,7,0,0,0-1.62-4.48l-.66-2.42L32,14.48h0l1.57-.43M33.33,7.9,26.57,9.74l.53,1.93-1.71.46a.58.58,0,0,0-.44.69l.88,3.24A7.54,7.54,0,0,0,25,16a6,6,0,1,0,3.72,10.7l1.07,3.93h0l.45,1.66a1.78,1.78,0,0,0,1.16,1.22l1.37.45h0l1.29.7.53,1.93L40.25,35l-.53-1.93.77-1.25h0l.89-1a2,2,0,0,0,.42-1.8l-.17-.61h0L36.53,9.67A.54.54,0,0,0,36,9.28l-.17,0-6.63,1.8,4.67-1.27L33.33,7.9ZM25,25a3,3,0,1,1,3-3,3,3,0,0,1-3,3Z"
    />
  </g>
</svg>
