<svg xmlns="http://www.w3.org/2000/svg" viewBox="0 0 64 64" fill="#065DBA">
    <g class="icon_plants">
        <rect x="12" y="52" width="40" height="4"/>
        <rect x="28" y="24" width="4" height="32"/>
        <path d="M46,12v1.1A8.91,8.91,0,0,1,37.1,22H32V20.9A8.91,8.91,0,0,1,40.9,12H46m4-4H40.9A12.91,12.91,0,0,0,28,20.9V26h9.1A12.91,12.91,0,0,0,50,13.1V8Z"/>
        <path d="M44,36v.4A7.61,7.61,0,0,1,36.4,44H32v-.4A7.61,7.61,0,0,1,39.6,36H44m4-4H39.6A11.6,11.6,0,0,0,28,43.6V48h8.4A11.6,11.6,0,0,0,48,36.4V32Z"/>
        <path d="M20.4,24A7.61,7.61,0,0,1,28,31.6V32H23.6A7.61,7.61,0,0,1,16,24.4V24h4.4m0-4H12v4.4A11.6,11.6,0,0,0,23.6,36H32V31.6A11.6,11.6,0,0,0,20.4,20Z"/>
    </g>
</svg>
