<svg xmlns="http://www.w3.org/2000/svg" viewBox="0 0 64 64">
    <g class="gfx_pin-inactive">
        <path class="gfx-pin__outline"
            fill="#fff"
            d="M32,8c10.09,0,18,8.16,18,18.57,0,10.65-9.4,18.72-16.26,24.61L32,52.72l-1.71-1.48C23.39,45.34,14,37.25,14,26.57,14,16.16,21.91,8,32,8m0-4C19.72,4,10,14,10,26.57,10,42,25.9,52.1,32,58.15,38.06,52.06,54,42,54,26.57,54,14,44.28,4,32,4Z"
        />
        <path class="gfx-pin__pin"
            fill="#ee2842"
            d="M32,8C21.91,8,14,16.16,14,26.57c0,10.68,9.39,18.77,16.25,24.67L32,52.72l1.78-1.54C40.6,45.29,50,37.22,50,26.57,50,16.16,42.09,8,32,8Z"
        />
        <path class="gfx-pin__circle" fill="#fff"
            d="M32,17a8,8,0,1,1-8,8,8,8,0,0,1,8-8Z"
        />
    </g>
</svg>
