<svg xmlns="http://www.w3.org/2000/svg" viewBox="0 0 96 100" width="1100">
    <g class="gfx-offset" stroke="#221f20" fill="#221f20" stroke-miterlimit="10">
        <g class="gfx-offset-background" opacity="0.5" fill="none" stroke-width="0.1">
            <polygon points="35.32 0.54 28.96 0.54 25.77 6.04 28.96 11.54 35.32 11.54 38.5 6.04 35.32 0.54" />
            <polygon points="63.96 17.03 57.59 17.03 54.41 22.53 57.59 28.02 63.96 28.02 67.14 22.53 63.96 17.03" />
            <polygon points="83.05 28.02 76.69 28.02 73.5 33.52 76.69 39.02 83.05 39.02 86.23 33.52 83.05 28.02" />
            <polygon points="35.32 11.54 28.96 11.54 25.77 17.03 28.96 22.53 35.32 22.53 38.5 17.03 35.32 11.54" />
            <polygon points="44.87 17.03 38.5 17.03 35.32 22.53 38.5 28.02 44.87 28.02 48.05 22.53 44.87 17.03" />
            <polygon points="63.96 28.02 57.59 28.02 54.41 33.52 57.59 39.02 63.96 39.02 67.14 33.52 63.96 28.02" />
            <polygon points="73.5 33.52 67.14 33.52 63.96 39.02 67.14 44.51 73.5 44.51 76.69 39.02 73.5 33.52" />
            <polygon points="16.23 11.54 9.87 11.54 6.68 17.03 9.87 22.53 16.23 22.53 19.41 17.03 16.23 11.54" />
            <polygon points="25.77 17.03 19.41 17.03 16.23 22.53 19.41 28.02 25.77 28.02 28.96 22.53 25.77 17.03" />
            <polygon points="44.87 28.02 38.5 28.02 35.32 33.52 38.5 39.02 44.87 39.02 48.05 33.52 44.87 28.02" />
            <polygon points="54.41 33.52 48.05 33.52 44.87 39.02 48.05 44.51 54.41 44.51 57.59 39.02 54.41 33.52" />
            <polygon points="54.41 44.51 48.05 44.51 44.87 50.01 48.05 55.51 54.41 55.51 57.59 50.01 54.41 44.51" />
            <polygon points="63.96 50.01 57.59 50.01 54.41 55.51 57.59 61 63.96 61 67.14 55.51 63.96 50.01" />
            <polygon points="83.05 61 76.69 61 73.5 66.5 76.69 72 83.05 72 86.23 66.5 83.05 61" />
            <polygon points="92.6 66.5 86.23 66.5 83.05 72 86.23 77.49 92.6 77.49 95.78 72 92.6 66.5" />
            <polygon points="25.77 39.02 19.41 39.02 16.23 44.51 19.41 50.01 25.77 50.01 28.96 44.51 25.77 39.02" />
            <polygon points="35.32 44.51 28.96 44.51 25.77 50.01 28.96 55.51 35.32 55.51 38.5 50.01 35.32 44.51" />
            <polygon points="44.87 50.01 38.5 50.01 35.32 55.51 38.5 61 44.87 61 48.05 55.51 44.87 50.01" />
            <polygon points="63.96 61 57.59 61 54.41 66.5 57.59 72 63.96 72 67.14 66.5 63.96 61" />
            <polygon points="73.5 66.5 67.14 66.5 63.96 72 67.14 77.49 73.5 77.49 76.69 72 73.5 66.5" />
            <polygon points="16.23 44.51 9.87 44.51 6.68 50.01 9.87 55.51 16.23 55.51 19.41 50.01 16.23 44.51" />
            <polygon points="44.87 61 38.5 61 35.32 66.5 38.5 72 44.87 72 48.05 66.5 44.87 61" />
            <polygon points="73.5 77.49 67.14 77.49 63.96 82.99 67.14 88.48 73.5 88.48 76.69 82.99 73.5 77.49" />
            <polygon points="28.96 11.54 22.59 11.54 19.41 17.03 22.59 22.53 28.96 22.53 32.14 17.03 28.96 11.54" />
            <polygon points="57.59 28.02 51.23 28.02 48.05 33.52 51.23 39.02 57.59 39.02 60.78 33.52 57.59 28.02" />
            <polygon points="76.69 39.02 70.32 39.02 67.14 44.51 70.32 50.01 76.69 50.01 79.87 44.51 76.69 39.02" />
            <polygon points="28.96 22.53 22.59 22.53 19.41 28.02 22.59 33.52 28.96 33.52 32.14 28.02 28.96 22.53" />
            <polygon points="38.5 28.02 32.14 28.02 28.96 33.52 32.14 39.02 38.5 39.02 41.69 33.52 38.5 28.02" />
            <polygon points="57.59 39.02 51.23 39.02 48.05 44.51 51.23 50.01 57.59 50.01 60.78 44.51 57.59 39.02" />
            <polygon points="67.14 44.51 60.78 44.51 57.59 50.01 60.78 55.51 67.14 55.51 70.32 50.01 67.14 44.51" />
            <polygon points="9.87 22.53 3.5 22.53 0.32 28.02 3.5 33.52 9.87 33.52 13.05 28.02 9.87 22.53" />
            <polygon points="19.41 28.02 13.05 28.02 9.87 33.52 13.05 39.02 19.41 39.02 22.59 33.52 19.41 28.02" />
            <polygon points="38.5 39.02 32.14 39.02 28.96 44.51 32.14 50.01 38.5 50.01 41.69 44.51 38.5 39.02" />
            <polygon points="48.05 44.51 41.69 44.51 38.5 50.01 41.69 55.51 48.05 55.51 51.23 50.01 48.05 44.51" />
            <polygon points="48.05 55.51 41.69 55.51 38.5 61 41.69 66.5 48.05 66.5 51.23 61 48.05 55.51" />
            <polygon points="57.59 61 51.23 61 48.05 66.5 51.23 72 57.59 72 60.78 66.5 57.59 61" />
            <polygon points="76.69 72 70.32 72 67.14 77.49 70.32 82.99 76.69 82.99 79.87 77.49 76.69 72" />
            <polygon points="86.23 77.49 79.87 77.49 76.69 82.99 79.87 88.48 86.23 88.48 89.42 82.99 86.23 77.49" />
            <polygon points="19.41 50.01 13.05 50.01 9.87 55.51 13.05 61 19.41 61 22.59 55.51 19.41 50.01" />
            <polygon points="28.96 55.51 22.59 55.51 19.41 61 22.59 66.5 28.96 66.5 32.14 61 28.96 55.51" />
            <polygon points="38.5 61 32.14 61 28.96 66.5 32.14 72 38.5 72 41.69 66.5 38.5 61" />
            <polygon points="57.59 72 51.23 72 48.05 77.49 51.23 82.99 57.59 82.99 60.78 77.49 57.59 72" />
            <polygon points="67.14 77.49 60.78 77.49 57.59 82.99 60.78 88.48 67.14 88.48 70.32 82.99 67.14 77.49" />
            <polygon points="9.87 55.51 3.5 55.51 0.32 61 3.5 66.5 9.87 66.5 13.05 61 9.87 55.51" />
            <polygon points="38.5 72 32.14 72 28.96 77.49 32.14 82.99 38.5 82.99 41.69 77.49 38.5 72" />
            <polygon points="67.14 88.48 60.78 88.48 57.59 93.98 60.78 99.48 67.14 99.48 70.32 93.98 67.14 88.48" />
        </g>
        <g class="gfx-offset-foreground" fill="none" stroke-width="0.125">
            <polygon points="32.14 6.04 25.77 6.04 22.59 11.54 25.77 17.03 32.14 17.03 35.32 11.54 32.14 6.04" />
            <polygon points="60.78 22.53 54.41 22.53 51.23 28.02 54.41 33.52 60.78 33.52 63.96 28.02 60.78 22.53" />
            <polygon points="79.87 33.52 73.5 33.52 70.32 39.02 73.5 44.51 79.87 44.51 83.05 39.02 79.87 33.52" />
            <polygon points="32.14 17.03 25.77 17.03 22.59 22.53 25.77 28.02 32.14 28.02 35.32 22.53 32.14 17.03" />
            <polygon points="41.69 22.53 35.32 22.53 32.14 28.02 35.32 33.52 41.69 33.52 44.87 28.02 41.69 22.53" />
            <polygon points="60.78 33.52 54.41 33.52 51.23 39.02 54.41 44.51 60.78 44.51 63.96 39.02 60.78 33.52" />
            <polygon points="70.32 39.02 63.96 39.02 60.78 44.51 63.96 50.01 70.32 50.01 73.5 44.51 70.32 39.02" />
            <polygon points="13.05 17.03 6.68 17.03 3.5 22.53 6.68 28.02 13.05 28.02 16.23 22.53 13.05 17.03" />
            <polygon points="22.59 22.53 16.23 22.53 13.05 28.02 16.23 33.52 22.59 33.52 25.77 28.02 22.59 22.53" />
            <polygon points="41.69 33.52 35.32 33.52 32.14 39.02 35.32 44.51 41.69 44.51 44.87 39.02 41.69 33.52" />
            <polygon points="51.23 39.02 44.87 39.02 41.69 44.51 44.87 50.01 51.23 50.01 54.41 44.51 51.23 39.02" />
            <polygon points="51.23 50.01 44.87 50.01 41.69 55.51 44.87 61 51.23 61 54.41 55.51 51.23 50.01" />
            <polygon points="60.78 55.51 54.41 55.51 51.23 61 54.41 66.5 60.78 66.5 63.96 61 60.78 55.51" />
            <polygon points="79.87 66.5 73.5 66.5 70.32 72 73.5 77.49 79.87 77.49 83.05 72 79.87 66.5" />
            <polygon points="89.42 72 83.05 72 79.87 77.49 83.05 82.99 89.42 82.99 92.6 77.49 89.42 72" />
            <polygon points="22.59 44.51 16.23 44.51 13.05 50.01 16.23 55.51 22.59 55.51 25.77 50.01 22.59 44.51" />
            <polygon points="32.14 50.01 25.77 50.01 22.59 55.51 25.77 61 32.14 61 35.32 55.51 32.14 50.01" />
            <polygon points="41.69 55.51 35.32 55.51 32.14 61 35.32 66.5 41.69 66.5 44.87 61 41.69 55.51" />
            <polygon points="60.78 66.5 54.41 66.5 51.23 72 54.41 77.49 60.78 77.49 63.96 72 60.78 66.5" />
            <polygon points="70.32 72 63.96 72 60.78 77.49 63.96 82.99 70.32 82.99 73.5 77.49 70.32 72" />
            <polygon points="13.05 50.01 6.68 50.01 3.5 55.51 6.68 61 13.05 61 16.23 55.51 13.05 50.01" />
            <polygon points="41.69 66.5 35.32 66.5 32.14 72 35.32 77.49 41.69 77.49 44.87 72 41.69 66.5" />
            <polygon points="70.32 82.99 63.96 82.99 60.78 88.48 63.96 93.98 70.32 93.98 73.5 88.48 70.32 82.99" />
        </g>
        <g class="gfx-offset__dots" stroke-width="0">
            <circle cx="25.77" cy="6.04" r="0.25" />
            <circle cx="32.14" cy="17.03" r="0.25" />
            <circle cx="22.59" cy="22.53" r="0.25" />
            <circle cx="6.68" cy="17.03" r="0.25" />
            <circle cx="13.05" cy="28.03" r="0.25" />
            <circle cx="16.23" cy="44.51" r="0.25" />
            <circle cx="3.5" cy="55.51" r="0.25" />
            <circle cx="13.05" cy="61" r="0.25" />
            <circle cx="22.59" cy="55.51" r="0.25" />
            <circle cx="32.14" cy="50.01" r="0.25" />
            <circle cx="41.68" cy="44.51" r="0.25" />
            <circle cx="51.23" cy="50.01" r="0.25" />
            <circle cx="60.78" cy="44.51" r="0.25" />
            <circle cx="70.32" cy="50.01" r="0.25" />
            <circle cx="73.51" cy="33.52" r="0.25" />
            <circle cx="79.93" cy="44.51" r="0.25" />
            <circle cx="54.41" cy="33.52" r="0.25" />
            <circle cx="54.41" cy="22.53" r="0.25" />
            <circle cx="63.96" cy="28.03" r="0.25" />
            <circle cx="41.68" cy="33.52" r="0.25" />
            <circle cx="41.68" cy="22.53" r="0.25" />
            <circle cx="32.14" cy="61" r="0.25" />
            <circle cx="44.87" cy="61" r="0.25" />
            <circle cx="54.41" cy="55.51" r="0.25" />
            <circle cx="63.96" cy="61" r="0.25" />
            <circle cx="60.78" cy="77.49" r="0.25" />
            <circle cx="73.51" cy="66.5" r="0.25" />
            <circle cx="79.87" cy="77.49" r="0.25" />
            <circle cx="92.6" cy="77.49" r="0.25" />
            <circle cx="70.32" cy="82.99" r="0.25" />
            <circle cx="63.96" cy="93.98" r="0.25" />
            <circle cx="54.41" cy="66.5" r="0.25" />
            <circle cx="35.32" cy="77.49" r="0.25" />
            <circle cx="44.87" cy="72" r="0.25" />
        </g>
    </g>
</svg>
