<svg xmlns="http://www.w3.org/2000/svg" viewBox="0 0 64 64" fill="#065dba">
  <g class="icon_hospital">
    <path d="M33,18a2.5,2.5,0,0,0,2.5-2.5A2.5,2.5,0,0,0,38,13V11a2.5,2.5,0,0,0-2.5-2.5A2.5,2.5,0,0,0,33,6H31a2.5,2.5,0,0,0-2.5,2.5A2.5,2.5,0,0,0,26,11v2a2.5,2.5,0,0,0,2.5,2.5A2.5,2.5,0,0,0,31,18H24V6H40V18Z"/>
    <path d="M40.51,4h-17A1.49,1.49,0,0,0,22,5.49v13A1.49,1.49,0,0,0,23.49,20h17A1.49,1.49,0,0,0,42,18.51v-13A1.49,1.49,0,0,0,40.51,4Zm-12,9.5A.5.5,0,0,1,28,13V11a.5.5,0,0,1,.5-.5h2v-2A.5.5,0,0,1,31,8h2a.5.5,0,0,1,.5.5v2h2a.5.5,0,0,1,.5.5v2a.5.5,0,0,1-.5.5h-2v2a.5.5,0,0,1-.5.5H31a.5.5,0,0,1-.5-.5v-2Z"/>
    <path d="M52,10H42v2H52V10ZM22,10H12v2H22V10Z"/>
    <path d="M36,48v6H28V48h8m6-24H34v6h8V24ZM30,24H22v6h8V24ZM42,34H34v6h8V34ZM30,34H22v6h8V34ZM40,44H24V58H40V44Z"/>
    <polygon points="15.87 10 12 10 12 12.24 15.87 14.47 15.87 12.24 15.87 10 15.87 10"/>
    <polygon points="52 10 48.13 10 48.13 12.24 48.13 14.47 52 12.24 52 10 52 10"/>
    <path d="M46,14V54H18V14h4a6.27,6.27,0,0,0,6.26,6h7.46A6.27,6.27,0,0,0,42,14h4m3-4H38a2.48,2.48,0,0,1,0,.27v3.46A2.26,2.26,0,0,1,35.73,16H28.27A2.26,2.26,0,0,1,26,13.73V10.27A2.48,2.48,0,0,1,26,10H15a1,1,0,0,0-1,1V54H10v4H54V54H50V11a1,1,0,0,0-1-1Z"/>
  </g>
</svg>
