<svg xmlns="http://www.w3.org/2000/svg" viewBox="0 0 120 70" preserveAspectRatio="xMaxYMax slice">
    <g class="gfx-default-panel">
        <rect width="100%" height="100%" fill="#065dba"/>
        <polygon points="26.42 44.69 54.35 0 0 0 0 2.4 26.42 44.69" fill="#001964"/>
        <polygon points="20 46.87 33.35 70 120 70 120 0 47.06 0 20 46.87" fill="#092884"/>
        <path opacity="0.7" d="M47.1,0,23.78,40.39H46.57a19.83,19.83,0,0,0,17.15-9.9L81.32,0Z" fill="#001964"/>
        <path d="M74.35,9.84l.25-.44L74.35,9h-.5l-.24.44.24.44Zm2.4,20.74.25-.43-.25-.44h-.49l-.25.44.25.43Zm-2.4-18,.25-.43-.25-.44h-.5l-.24.44.24.43Zm0,2.77.25-.44-.25-.43h-.5l-.24.43.24.44Zm0,2.77.25-.44-.25-.44h-.5l-.24.44.24.44Zm2.4,9.68.25-.44-.25-.44h-.49l-.25.44.25.44ZM79.15,32l.25-.44-.25-.44h-.49l-.25.44.25.44Zm-2.4-20.75.25-.44-.25-.43h-.49l-.25.43.25.44Zm0,8.3.25-.44-.25-.43h-.49l-.25.43.25.44Zm0-2.77.25-.43-.25-.44h-.49l-.25.44.25.43ZM72,11.22l.24-.44L72,10.35h-.5l-.25.43.25.44Zm0,8.3.24-.44L72,18.65h-.5l-.25.43.25.44Zm2.4,1.38.25-.43L74.35,20h-.5l-.24.44.24.43ZM72,30.58l.24-.43L72,29.71h-.5l-.25.44.25.43Zm0-8.29.24-.44L72,21.41h-.5l-.25.44.25.44Zm2.4,4.15L74.6,26l-.25-.44h-.5l-.24.44.24.44ZM72,8.46,72.19,8,72,7.58h-.5L71.2,8l.25.44Zm2.4,15.21.25-.44-.25-.43h-.5l-.24.43.24.44Zm0,8.3.25-.44-.25-.44h-.5l-.24.44.24.44Zm7.21-4.15.24-.44-.24-.44h-.5l-.25.44.25.44Zm0-5.53.24-.44-.24-.44h-.5l-.25.44.25.44Zm0,2.76.24-.43-.24-.44h-.5l-.25.44.25.43Zm0,11.07.24-.44-.24-.44h-.5l-.25.44.25.44Zm0-16.6.24-.44-.24-.43h-.5l-.25.43.25.44ZM72,36.12l.24-.44L72,35.24h-.5l-.25.44.25.44Zm9.61-24.9.24-.44-.24-.43h-.5l-.25.43.25.44Zm0-11.06L81.64,0H81l.09.16Zm0,16.59.24-.43-.24-.44h-.5l-.25.44.25.43Zm0-2.76.24-.44-.24-.44h-.5l-.25.44.25.44ZM79.15,9.84l.25-.44L79.15,9h-.49l-.25.44.25.44Zm0,8.3.25-.44-.25-.44h-.49l-.25.44.25.44Zm0,2.76.25-.43L79.15,20h-.49l-.25.44.25.43ZM81.06,38l-.24.44h0l.25.43h.5l.24-.43h0L81.56,38ZM79.15,15.37l.25-.44-.25-.43h-.49l-.25.43.25.44Zm0,8.3.25-.44-.25-.43h-.49l-.25.43.25.44Zm0-16.6.25-.43-.25-.44h-.49l-.25.44.25.43Zm0-5.53.25-.44L79.15.67h-.49l-.25.43.25.44Zm0,24.9L79.4,26l-.25-.44h-.49l-.25.44.25.44Zm0-13.84.25-.43-.25-.44h-.49l-.25.44.25.43ZM59.94,18.14l.24-.44-.24-.44h-.5l-.25.44.25.44ZM35.42,67l-.25.44.25.44h.5l.24-.44L35.92,67ZM28.21,51.83l-.24.44.24.43h.5l.25-.43-.25-.44Zm7.21,12.45-.25.44.25.43h.5l.24-.43-.24-.44Zm0-5.53-.25.43.25.44h.5l.24-.44-.24-.43ZM33,60.13l-.25.44L33,61h.49l.25-.43-.25-.44ZM69.55,12.6l.24-.43-.24-.44h-.5l-.25.44.25.43ZM30.62,58.75l-.25.43.25.44h.49l.25-.44-.25-.43ZM33,62.9l-.25.43.25.44h.49l.25-.44-.25-.43ZM30.62,56l-.25.44.25.43h.49l.25-.43L31.11,56Zm4.8,0-.25.44.25.43h.5l.24-.43L35.92,56ZM40.23,67l-.25.44.25.44h.49l.25-.44L40.72,67Zm0-8.29-.25.43.25.44h.49l.25-.44-.25-.43Zm0-2.77-.25.44.25.43h.49l.25-.43L40.72,56Zm-2.41-6.92-.24.44.24.44h.5l.25-.44-.25-.44Zm-2.4-1.38-.25.44.25.44h.5l.24-.44-.24-.44Zm2.4,20.75-.24.43.24.44h.5l.25-.44-.25-.43Zm0-13.83-.24.43.24.44h.5l.25-.44-.25-.43Zm0,11.06-.24.44.24.44h.5l.25-.44-.25-.44Zm0-5.53-.24.44.24.43h.5l.25-.43-.25-.44Zm-7.2,4.15-.24.43.25.44h.48l.25-.43-.25-.44Zm36.52-42,.25-.44-.25-.44h-.49l-.25.44.25.44Zm0-11.07.25-.44-.25-.43h-.49l-.25.43.25.44Zm0,8.3.25-.44-.25-.43h-.49l-.25.43.25.44Zm0,8.3.25-.44-.25-.44h-.49l-.25.44.25.44Zm2.41-4.15.24-.44-.24-.43h-.5l-.25.43.25.44Zm-2.41,6.91.25-.43-.25-.44h-.49l-.25.44.25.43Zm-38.93,24L28,55l.24.44h.5L29,55l-.25-.43ZM69.55,18.14l.24-.44-.24-.44h-.5l-.25.44.25.44Zm0,11.06.24-.44-.24-.43h-.5l-.25.43.25.44Zm0,2.77.24-.44-.24-.44h-.5l-.25.44.25.44ZM55.13,18.14l.25-.44-.25-.44h-.49l-.25.44.25.44ZM84,34.73l.25-.43L84,33.86h-.5l-.24.44.24.43ZM57.53,19.52l.25-.44-.25-.43H57l-.25.43.25.44ZM25.81,56l-.2.36.29.51h.41l.24-.43L26.31,56ZM64.74,23.67l.25-.44-.25-.43h-.49l-.25.43.25.44Zm-4.8-8.3.24-.44-.24-.43h-.5l-.25.43.25.44Zm2.4,6.92.25-.44-.25-.44h-.5l-.24.44.24.44Zm0-2.77.25-.44-.25-.43h-.5l-.24.43.24.44Zm0,8.3.25-.44-.25-.44h-.5l-.24.44.24.44ZM95.47,10.35l-.24.43.24.44H96l.25-.44L96,10.35Zm0,5.53-.24.44.24.43H96l.25-.43L96,15.88ZM40.23,47.68l-.25.44.25.44h.49l.25-.44-.25-.44ZM95.47,7.58,95.23,8l.24.44H96L96.22,8,96,7.58Zm0,11.07-.24.43.24.44H96l.25-.44L96,18.65Zm0,2.76-.24.44.24.44H96l.25-.44L96,21.41Zm2.41-6.91-.25.43.25.44h.49l.25-.44-.25-.43ZM95.47,4.82l-.24.43.24.44H96l.25-.44L96,4.82Zm2.41,12.44-.25.44.25.44h.49l.25-.44-.25-.44Zm0-5.53-.25.44.25.43h.49l.25-.43-.25-.44Zm0,8.3-.25.44.25.43H98l.42-.73L98.37,20Zm-4.81,5.53-.25.44.25.44h.5l.24-.44-.24-.44Zm0-2.76-.25.43.25.44h.5l.24-.44-.24-.43Zm0-2.77-.25.44.25.43h.5l.24-.43L93.57,20ZM91.16.16,91.25,0h-.67l.09.16ZM93.07,14.5l-.25.43.25.44h.5l.24-.44-.24-.43Zm0-8.3-.25.44.25.43h.5l.24-.43-.24-.44Zm2.4,18-.24.44.24.43h.16l.42-.72L96,24.18ZM93.07,3.43l-.25.44.25.44h.5l.24-.44-.24-.44Zm0,8.3-.25.44.25.43h.5l.24-.43-.24-.44ZM112.29.67,112,1.1l.25.44h.49L113,1.1l-.25-.43Zm2.9-.51.09-.16h-.68l.09.16Zm-17.31,6-.25.44.25.43h.49l.25-.43-.25-.44Zm19.21-2.77-.24.44.24.44h.5l.25-.44-.25-.44ZM90.67,2.05l-.25.44.25.43h.49l.25-.43-.25-.44Zm21.62,1.38-.25.44.25.44h.49l.25-.44-.25-.44ZM86.06,41.64l.4-.7-.1-.17h-.49l-.25.43.25.44Zm31-41-.24.43.24.44h.5l.25-.44-.25-.43Zm-36,40.1-.24.43.24.44h.5l.25-.44-.25-.43Zm2.41-1.39-.25.44.25.44H84l.25-.44L84,39.38ZM114.69,2.05l-.25.44.25.43h.5l.24-.43-.24-.44Zm-14.41,8.3-.25.43.25.44h.49l.25-.44-.25-.43Zm0,2.76-.25.44.25.44h.49l.25-.44-.25-.44Zm0,2.77-.25.44.25.43h.15l.42-.73-.08-.14ZM97.88,3.43l-.25.44.25.44h.49l.25-.44-.25-.44ZM102.68,9l-.25.44.25.44h.5l.24-.44L103.18,9Zm-2.4-1.38L100,8l.25.44h.49L101,8l-.25-.44ZM107.49.67l-.25.43.25.44H108l.25-.44L108,.67Zm2.4-.51h.49l.09-.16h-.67Zm-7.21,11.57-.25.44.25.43h.14l.43-.74-.07-.13Zm-12-4.15L90.42,8l.25.44h.49L91.41,8l-.25-.44Zm-4.31,9.17.25-.43-.25-.44h-.49l-.25.44.25.43Zm0,5.54.25-.44-.25-.44h-.49l-.25.44.25.44Zm0-11.07.25-.44-.25-.43h-.49l-.25.43.25.44Zm0,8.3.25-.44-.25-.43h-.49l-.25.43.25.44Zm0-5.53.25-.44-.25-.44h-.49l-.25.44.25.44ZM88.27,37.5h.18l.41-.71-.1-.17h-.49l-.25.43h0Zm0-6.41-.25.44.25.44h.49l.25-.44-.25-.44ZM86.36,2.92l.25-.43-.25-.44h-.49l-.25.44.25.43Zm0-2.76L86.45,0h-.67l.09.16ZM85.87,38l-.25.44.25.43h.49l.25-.43L86.36,38Zm.49-12.95.25-.43-.25-.44h-.49l-.25.44.25.43ZM84,15.37l.25-.44L84,14.5h-.5l-.24.43.24.44Zm0,2.77.25-.44L84,17.26h-.5l-.24.44.24.44Zm0,5.53.25-.44L84,22.8h-.5l-.24.43.24.44ZM84,4.31l.25-.44L84,3.43h-.5l-.24.44.24.44Zm2.4,23.51.25-.44-.25-.44h-.49l-.25.44.25.44ZM84,1.54l.25-.44L84,.67h-.5l-.24.43.24.44Zm2.4,34.58.25-.44-.25-.44h-.49l-.25.44.25.44Zm-2.89.5-.25.43.25.44H84l.25-.44L84,36.62Zm7.2-15.21-.25.44.25.44h.49l.25-.44-.25-.44Zm0-16.59-.25.43.25.44h.49l.25-.44-.25-.43Zm0,22.12-.25.44.25.44h.49l.25-.44-.25-.44Zm0-2.76-.25.44.25.43h.49l.25-.43-.25-.44Zm0,5.53-.25.44.25.43h.49l.25-.43-.25-.44Zm0-19.36-.25.43.25.44h.49l.25-.44-.25-.43Zm0,8.3-.25.43.25.44h.49l.25-.44-.25-.43Zm0,13.83-.25.43.25.44h.17l.42-.71-.1-.16Zm-2.4-4.15-.25.43.25.44h.49l.25-.44-.25-.43Zm2.4-12.45-.25.44.25.43h.49l.25-.43-.25-.44ZM84,26.44l.25-.44L84,25.56h-.5l-.24.44.24.44ZM88.27,14.5l-.25.43.25.44h.49l.25-.44-.25-.43Zm0,2.76L88,17.7l.25.44h.49L89,17.7l-.25-.44Zm0,5.54-.25.43.25.44h.49l.25-.44-.25-.43Zm0,2.76L88,26l.25.44h.49L89,26l-.25-.44Zm0-22.13L88,3.87l.25.44h.49L89,3.87l-.25-.44Zm0-2.76L88,1.1l.25.44h.49L89,1.1,88.76.67Zm0,11.06-.25.44.25.43h.49l.25-.43-.25-.44Zm0-2.77L88,9.4l.25.44h.49L89,9.4,88.76,9Zm-12,26.27-.25.44.25.44h.49l.25-.44-.25-.44ZM69.05,61.51,68.8,62l.25.44h.5l.24-.44-.24-.44Zm0-5.53-.25.44.25.43h.5l.24-.43L69.55,56Zm0,2.77-.25.43.25.44h.5l.24-.44-.24-.43Zm0,8.29-.25.44.25.44h.5l.24-.44L69.55,67Zm0-2.76-.25.44.25.43h.5l.24-.43-.24-.44Zm-2.4-20.75L66.4,44l.25.44h.49l.25-.44-.25-.44Zm0,5.53-.25.44.25.44h.49l.25-.44-.25-.44Zm2.4,20.75-.11.19h.71l-.1-.19Zm.5-35.08.24-.43-.24-.44h-.5l-.25.44.25.43Zm-2.9,6-.25.43h0l.25.44h.49l.25-.44h0l-.25-.43Zm4.8,22.13-.24.43.24.44H72l.25-.44L72,62.9Zm0,5.53-.24.43.24.44H72l.25-.44L72,68.43Zm0-8.3-.24.44.24.43H72l.25-.43L72,60.13Zm0-2.77-.24.44.24.44H72l.25-.44L72,57.36Zm-2.4-12.44-.25.43.25.44h.5l.24-.44-.24-.43Zm0,5.53-.25.43.25.44h.5l.24-.44-.24-.43Zm0-2.77-.25.44.25.44h.5l.24-.44-.24-.44Zm0,5.53-.25.44.25.44h.5l.24-.44-.24-.44ZM72,38.88l.24-.43L72,38h-.5l-.25.44.25.43Zm-5.3,24-.25.43.25.44h.49l.25-.44-.25-.43Zm-2.4,1.38-.25.44.25.43h.49l.25-.43-.25-.44Zm0-2.77L64,62l.25.44h.49L65,62l-.25-.44Zm0-8.3-.25.44.25.44h.49l.25-.44-.25-.44Zm0,2.77-.25.44.25.43h.49l.25-.43L64.74,56Zm0,2.77-.25.43.25.44h.49l.25-.44-.25-.43Zm-2.4-15.22L61.6,44l.25.44h.49l.25-.44-.25-.44ZM64.25,67l-.25.44.25.44h.49l.25-.44L64.74,67Zm-2.4-26.27-.25.43.25.44h.49l.25-.44-.25-.43Zm2.89-14.33L65,26l-.25-.44h-.49L64,26l.25.44Zm1.91,39.22-.25.44.25.44h.49l.25-.44-.25-.44Zm4.8-11.06-.24.43.24.44H72L72.2,55,72,54.6Zm-4.8,5.53-.25.44.25.43h.49l.25-.43-.25-.44ZM40.23,44.92l-.25.43.25.44h.49l.25-.44-.25-.43Zm24,2.76-.25.44.25.44h.49l.25-.44-.25-.44Zm2.4,6.92L66.4,55l.25.44h.49l.25-.44-.25-.43Zm0-2.77-.25.44.25.43h.49l.25-.43-.25-.44Zm-2.4-6.91-.25.43.25.44h.49l.25-.44-.25-.43Zm0-2.77-.25.44.25.43h.49l.25-.43-.25-.44Zm2.4,26.28-.25.43.25.44h.49l.25-.44-.25-.43Zm19.22-2.77-.25.44.25.44h.49l.25-.44-.25-.44ZM78.66,53.21l-.25.44.25.44h.5l.24-.44-.24-.44Zm0-2.76-.25.43.25.44h.5l.24-.44-.24-.43Zm0-2.77-.25.44.25.44h.5l.24-.44-.24-.44Zm2.4,15.22-.24.43.24.44h.5l.25-.44-.25-.43ZM71.45,51.83l-.24.44.24.43H72l.25-.43L72,51.83Zm7.21,9.68-.25.44.25.44h.5L79.4,62l-.24-.44Zm0,2.77-.25.44.25.43h.5l.24-.43-.24-.44Zm0-8.3-.25.44.25.43h.5l.24-.43L79.16,56Zm0,2.77-.25.43.25.44h.5l.24-.44-.24-.43ZM119.5,4.82l-.25.43.25.44H120V4.83h-.5Zm-31.23,65-.11.19h.71l-.11-.19ZM119.5,2.05l-.25.44.25.43h.5V2.06h-.5ZM79.15,34.73l.25-.43-.25-.44h-.49l-.25.44.25.43ZM119.41,0l.09.16H120V0ZM85.87,68.43l-.25.43.25.44h.49l.25-.44-.25-.43Zm-2.4-4.15-.25.44.25.43H84l.25-.43L84,64.28Zm0-2.77-.25.44.25.44H84l.25-.44L84,61.51Zm-2.41-1.38-.24.44.24.43h.5l.25-.43-.25-.44ZM61.85,49.06l-.25.44.25.44h.49l.25-.44-.25-.44ZM78.66,36.62l-.25.43.25.44h.5l.24-.44-.24-.43Zm-4.8,16.59-.25.44.25.44h.49l.25-.44-.25-.44Zm0,2.77-.25.44.25.43h.49l.25-.43L74.35,56Zm0,8.3-.25.44.25.43h.49l.25-.43-.25-.44Zm0-16.6-.25.44.25.44h.49l.25-.44-.25-.44Zm0,19.36-.25.44.25.44h.49l.25-.44L74.35,67Zm-2.41-18-.24.44.24.44H72l.25-.44L72,49.06Zm0-2.76-.24.44.24.43H72l.25-.43L72,46.3Zm2.9-6,.25-.44-.25-.44h-.5l-.24.44.24.44Zm1.91,28.16-.25.43.25.44h.49l.25-.44-.25-.43Zm0-5.53-.25.43.25.44h.49l.25-.44-.25-.43Zm0-11.07-.25.44.25.43h.49l.25-.43-.25-.44Zm0-5.53-.25.44.25.43h.49l.25-.43-.25-.44Zm0,2.76L76,49.5l.25.44h.49L77,49.5l-.25-.44Zm0-5.53L76,44l.25.44h.49L77,44l-.25-.44Zm0,11.07L76,55l.25.44h.49L77,55l-.25-.43Zm0,5.53-.25.44.25.43h.49l.25-.43-.25-.44Zm0-2.77L76,57.8l.25.44h.49L77,57.8l-.25-.44Zm0-19.36-.25.44h0l.25.43h.49l.25-.43h0L76.75,38ZM66.65,57.36l-.25.44.25.44h.49l.25-.44-.25-.44ZM49.83,53.21l-.24.44.24.44h.5l.25-.44-.25-.44Zm0,8.3-.24.44.24.44h.5l.25-.44-.25-.44Zm0,2.77-.24.44.24.43h.5l.25-.43-.25-.44Zm0-8.3-.24.44.24.43h.5l.25-.43L50.33,56Zm0,2.77-.24.43.24.44h.5l.25-.44-.25-.43Zm-2.4-23.52-.25.44.25.44h.5l.24-.44-.24-.44Zm0,11.07-.25.44.25.43h.5l.24-.43-.24-.44Zm0,2.76-.25.44.25.44h.5l.24-.44-.24-.44Zm0-11.06-.25.44.25.43h.5l.24-.43L47.93,38Zm0,5.53-.25.44.25.44h.5l.24-.44-.24-.44ZM52.24,54.6,52,55l.25.44h.49L53,55l-.25-.43Zm0-13.83L52,41.2l.25.44h.49L53,41.2l-.25-.43Zm0,11.06-.25.44.25.43h.49l.25-.43-.25-.44Zm0-13.83-.25.44.25.43h.49l.25-.43L52.73,38Zm-2.41-1.38-.24.43.24.44h.5l.25-.44-.25-.43Zm5.3-10.18.25-.44-.25-.44h-.49l-.25.44.25.44Zm-5.3,21.24-.24.44.24.44h.5l.25-.44-.25-.44Zm0,2.77-.24.43.24.44h.5l.25-.44-.25-.43ZM52.24,62.9l-.25.43.25.44h.49l.25-.44-.25-.43Zm0-2.77-.25.44.25.43h.49l.25-.43-.25-.44ZM45,67l-.25.44.25.44h.49l.25-.44L45.52,67Zm-2.4-18-.25.44.25.44h.49l.25-.44-.25-.44Zm0,2.77-.25.44.25.43h.49l.25-.43-.25-.44Zm0-5.53-.25.44.25.43h.49l.25-.43-.25-.44Zm0,8.3-.25.43.25.44h.49l.25-.44-.25-.43Zm0,13.83-.25.43.25.44h.49l.25-.44-.25-.43Zm0-11.07-.25.44.25.44h.49l.25-.44-.25-.44Zm0,5.54-.25.43.25.44h.49l.25-.44-.25-.43Zm0-2.77-.25.44.25.43h.49l.25-.43-.25-.44Zm4.8-5.53-.25.43.25.44h.5l.24-.44-.24-.43ZM45,64.28l-.25.44.25.43h.49l.25-.43-.25-.44Zm2.4-6.92-.25.44.25.44h.5l.24-.44-.24-.44Zm0-5.53-.25.44.25.43h.5l.24-.43-.24-.44Zm0,11.07-.25.43.25.44h.5l.24-.44-.24-.43Zm0-2.77-.25.44.25.43h.5l.24-.43-.24-.44ZM45,53.21l-.25.44.25.44h.49l.25-.44-.25-.44ZM45,56l-.25.44.25.43h.49l.25-.43L45.52,56Zm0-8.3-.25.44.25.44h.49l.25-.44-.25-.44Zm2.4,20.75-.25.43.25.44h.5l.24-.44-.24-.43ZM57,46.3l-.25.44.25.43h.5l.24-.43-.24-.44Zm2.4,12.45-.24.43.24.44h.5l.25-.44-.25-.43Zm0,2.76L59.2,62l.24.44h.5l.25-.44-.25-.44Zm0-5.53-.24.44.24.43h.5l.25-.43L59.94,56Zm0-8.3-.24.44.24.44h.5l.25-.44-.25-.44Zm0,5.53-.24.44.24.44h.5l.25-.44-.25-.44Zm0,11.07-.24.44.24.43h.5l.25-.43-.25-.44ZM57,38l-.25.44.25.43h.5l.24-.43L57.54,38Zm2.4,31.81-.1.19h.71l-.11-.19Zm-4.8-5.53-.25.44.25.43h.49l.25-.43-.25-.44Zm5.3-37.84.24-.44-.24-.44h-.5l-.25.44.25.44Zm1.91,42-.25.43.25.44h.49l.25-.44-.25-.43Zm0-8.3-.25.44.25.43h.49l.25-.43-.25-.44Zm0,2.77-.25.43.25.44h.49l.25-.44-.25-.43Zm-2.41-18-.24.43.24.44h.5l.25-.44-.25-.43Zm2.41,12.44-.25.44.25.44h.49l.25-.44-.25-.44ZM59.44,42.15l-.24.44.24.43h.5l.25-.43-.25-.44Zm2.9-11.57.25-.43-.25-.44h-.5l-.24.44.24.43Zm-2.9,8.8-.24.44.24.44h.5l.25-.44-.25-.44Zm0-2.76-.24.43.24.44h.5l.25-.44-.25-.43Zm0,30.42-.24.44.24.44h.5l.25-.44L59.94,67Zm-4.8-19.36-.25.44.25.44h.49l.25-.44-.25-.44Zm0,2.77-.25.43.25.44h.49l.25-.44-.25-.43Zm0-11.07-.25.44.25.44h.49l.25-.44-.25-.44Zm0-2.76-.25.43.25.44h.49l.25-.44-.25-.43Zm0,24.89-.25.44.25.44h.49l.25-.44-.25-.44Zm0-8.3-.25.44.25.44h.49l.25-.44-.25-.44Zm2.89-28.16.25-.43-.25-.44H57l-.25.44.25.43Zm-2.89,33.7-.25.43.25.44h.49l.25-.44-.25-.43Zm0-2.77-.25.44.25.43h.49l.25-.43L55.13,56ZM57,49.06l-.25.44.25.44h.5l.24-.44-.24-.44Zm0-8.29-.25.43.25.44h.5l.24-.44-.24-.43ZM57,54.6l-.25.43.25.44h.5l.24-.44-.24-.43Zm0-2.77-.25.44.25.43h.5l.24-.43-.24-.44Zm4.81,0-.25.44.25.43h.49l.25-.43-.25-.44ZM57,68.43l-.25.43.25.44h.5l.24-.44-.24-.43Zm0-2.77-.25.44.25.44h.5l.24-.44-.24-.44Zm0-5.53-.25.44L57,61h.5l.24-.43-.24-.44Zm0,2.77-.25.43.25.44h.5l.24-.44-.24-.43Z" fill="#00207f"/>
        <path d="M120,6H107.21a1,1,0,0,0-.87.5L80,52.13a1.6,1.6,0,0,0,0,1.61L89.39,70H120Z" fill="#c5050c"/>
        <path d="M120,70V26.69A11.72,11.72,0,0,0,113.62,32l-22,38Z" fill="#e00e2a"/>
    </g>
</svg>
