<svg xmlns="http://www.w3.org/2000/svg" viewBox="0 0 66 66">
  <g class="gfx-card-fallback">
    <path fill="#001964" d="M0 0h66v66H0z"/>
    <path fill="#00207f" d="M2.5 22.2l-.2.4.2.3h.4l.2-.3-.2-.4zm0 4.7l-.2.3.2.4h.4l.2-.4-.2-.3zm0-2.4l-.2.4.2.4h.4l.2-.4-.2-.4zm0 11.7l-.2.4.2.3h.4l.2-.3-.2-.4zm0-7l-.2.4.2.3h.4l.2-.3-.2-.4zm0-11.7l-.2.4.2.4h.4l.2-.4-.2-.4zm0-4.6l-.2.3.2.4h.4l.2-.4-.2-.3zm0 2.3l-.2.4.2.3h.4l.2-.3-.2-.4zm0 40l-.2.4.2.4h.4l.2-.4-.2-.4zm0-2.3l-.2.4.2.4h.4l.2-.4-.2-.4zm10.1 12.9l-.1.2h.7l-.2-.2zM2.5 59.9l-.2.4.2.4h.4l.2-.4-.2-.4zm0-21l-.2.4.2.4h.4l.2-.4-.2-.4zm0-30.7l-.2.4.2.4h.4l.2-.4-.2-.4zm0 35.4l-.2.4.2.3h.4L3 44l-.2-.4zm0 2.3l-.2.4.2.4h.4l.2-.4-.2-.4zm-2-15.5l-.2.4.2.3h.4l.2-.3-.2-.4zM.5 14l-.3.4.2.3H1l.2-.3-.2-.4zm0 2.3l-.3.4.2.4H1l.2-.4-.2-.4zM.4 7l-.3.4.2.3H1l.2-.3L.9 7zm0 16.4l-.3.3.2.4H1l.2-.4-.2-.3zm0-4.7l-.3.4.2.3H1l.2-.3-.2-.4zm8 47v.3H9l-.1-.2zm-4 0l-.1.3H5l-.2-.2zm-4-4.6l-.3.3.2.4H1l.2-.4-.2-.3zm0-11.7l-.3.4.2.3H1l.2-.3-.2-.4zm0 4.7l-.3.3.2.4H1l.2-.4-.2-.3zm0 2.3l-.3.4.2.3H1l.2-.3-.2-.4zm0-30.7l-.3.4.2.3H1l.2-.3-.2-.4zm0 21.4l-.3.3.2.4H1l.2-.4-.2-.3zm0-2.4l-.3.4.2.4H1L1 45l-.2-.4zm2 12.9l-.2.4.2.4h.4L3 58l-.2-.4zm-2-19.9l-.3.4.2.4H1L1 38l-.2-.4zm2 10.5l-.3.4.2.4H3l.2-.4-.2-.4zm4-42.4l-.2.4.2.4H7l.2-.4-.2-.4zm0 4.7l-.2.4.2.4H7l.2-.4-.2-.4zm0-2.3l-.2.4.2.3H7l.2-.3-.2-.4zm0 9.3l-.2.4.2.4H7l.2-.4-.2-.4zm0-2.3l-.2.4.2.3H7l.2-.3-.2-.4zm-2 43.6l-.2.3.2.4H5l.2-.4-.3-.3zm0-2.4l-.2.4.2.4H5l.2-.4-.3-.4zM5 35.1h-.5l-.2.3v.4l.2.3h.4l.2-.3-.1-.2.1-.2zm1.5 13.1l-.2.4.2.4H7l.2-.4-.2-.4zm-2 5.9l-.2.3.2.4H5l.2-.4-.3-.3zm2 1.1l-.2.4.2.4H7l.2-.4-.2-.4zm0-33l-.2.4.2.4H7l.2-.4-.2-.4zm0 30.7l-.2.4.2.4H7l.2-.4L7 53zm0-28.3l-.2.3.2.4H7l.2-.4-.2-.4zm0 16.7l-.2.3.2.4H7l.2-.4-.2-.4zm0 4.6l-.2.4.2.4H7l.2-.4L7 46zM4.5 14l-.2.4.2.3h.4l.2-.3L5 14zm0 4.7l-.2.3.2.4h.4l.2-.4-.2-.3zm0-2.4l-.2.4.2.4h.4l.2-.4-.2-.4zm0 4.7l-.2.4.2.3h.4l.2-.3L5 21zm0-9.3l-.2.3.2.4h.4l.2-.4-.2-.4zm0-7l-.2.3.2.4h.4l.2-.4-.2-.4zm0 2.3l-.2.4.2.3h.4l.2-.3L5 7zm0 16.4l-.2.3.2.4h.4l.2-.4-.2-.3zm0 26l-.2.3.2.4h.4l.2-.4-.2-.3zm0-2.4l-.2.4.2.4h.4l.2-.4L5 47zm0-2.3l-.2.4.2.3h.4l.2-.3-.2-.4zm0-19l-.2.4.2.3h.4l.2-.3-.2-.4zm0 26l-.2.4.2.3h.4l.2-.3-.2-.4zm0-23.7l-.2.4.2.3h.4l.2-.3L5 28zm0 14.3l-.2.4.2.4h.4l.2-.4-.2-.4zm0-4.6l-.2.3.2.4h.4l.2-.4-.2-.3zM41 35.4l-.2.4.2.3h.4l.2-.4-.2-.3zm0 16.3l-.2.4.2.4h.4l.2-.4-.2-.4zm0 2.4l-.2.3.2.4h.4l.2-.4-.2-.3zm0 7l-.2.3.2.4h.4l.2-.4-.2-.3zm0-16.4l-.2.4.2.4h.4l.2-.4-.2-.4zm0 2.4l-.2.3.2.4h.4l.2-.4-.2-.3zM7 38.5h-.5l-.2.4.1.2v.2l.1.3H7l.2-.3v-.4zm34-8.1l-.2.3.2.4h.4l.2-.4-.2-.3zm0 2.7l-.2.3.2.4h.4l.2-.4-.2-.3zm2-13.2l-.2.3.2.4h.4l.2-.4-.2-.3zm0-18.7l-.2.3.2.4h.4l.2-.4-.2-.3zm-2 22.2l-.2.3.2.4h.4l.2-.4-.2-.3zm2-1.2l-.2.4.2.3h.4l.2-.3-.2-.4zm0-4.7l-.2.4.2.4h.4l.2-.4-.2-.4zm0-7l-.2.4.2.4h.4l.2-.4-.2-.4zm0 4.7l-.2.4.2.3h.4l.2-.3-.2-.4zm0-2.3l-.2.3.2.4h.4l.2-.4-.2-.3zm-2-8.2l-.2.3.2.4h.4l.3-.4-.3-.4zm-2 43.5l-.2.4.2.4h.4l.2-.4-.2-.3zm0-2.3l-.2.4.2.3h.4l.2-.3-.2-.4zm0 4.7l-.2.3.2.4h.4l.2-.4-.2-.3zm0-7l-.2.3.2.4h.4l.2-.4-.2-.3zm0-9.4l-.2.4.2.4h.4l.2-.4-.2-.3zm0 7l-.2.4.2.4h.4l.2-.4-.2-.3zM41 21l-.2.4.2.3h.4l.2-.3-.2-.4zm-2 32l-.2.3.2.3h.4l.2-.3-.2-.4zm4-28.5l-.1.4.2.4h.4l.2-.4-.2-.4zM41 14l-.2.4.2.3h.4l.2-.3-.2-.4zm0 2.3l-.2.4.2.4h.4l.2-.4-.2-.4zm0-14l-.2.4.2.4h.4l.2-.4-.2-.4zm-2 60l-.2.3.2.4h.4l.2-.4-.2-.3zm0-7l-.2.3.2.4h.4l.2-.4-.2-.3zm6.5-25h-.4l-.2.4v.4l.2.4h.4l.2-.4v-.4zm-6 1.2H39l-.2.4V32.2l.2.4h.4l.2-.4V32zM45 33l-.2.4.2.4h.4l.2-.4-.2-.4zm0 4.7l-.2.4.2.4h.4l.2-.4-.2-.4zm0-21.3l-.2.3.2.4h.4l.2-.4-.2-.3zM45 40l-.2.3.2.4h.4l.2-.4-.2-.3zm0-19l-.2.3.2.4h.4l.2-.4-.2-.4zm0 2.3l-.2.4.2.3h.4l.2-.3-.2-.4zm0-4.7l-.2.4.2.4h.4l.2-.4-.2-.4zm0 23.7l-.2.4.2.4h.4l.2-.4-.2-.4zm0-14.3l-.2.3.2.4h.4l.2-.4-.2-.4zm0 33l-.2.3.2.4h.4l.2-.4-.2-.3zm0-7l-.2.3.2.4h.4l.2-.4-.2-.3zm0 4.6l-.2.4.2.4h.4l.2-.4-.2-.4zm0-11.6l-.2.3.2.4h.4l.2-.4-.2-.3zm-2-13.2l-.2.4.2.3h.4l.2-.4-.2-.3zm2 15.5l-.2.4.2.3h.4l.2-.3-.2-.4zm0 2.3l-.2.4.2.4h.4l.2-.4-.2-.4zm0-7l-.2.4.2.4h.4l.2-.4-.2-.4zm-2 5.9l-.2.4.2.3h.4l.2-.3-.2-.4zm0 2.3l-.2.4.2.4h.4l.2-.4-.2-.4zm0-4.7l-.2.4.2.4h.4l.2-.4-.2-.4zm0-4.6l-.2.3.2.4h.4l.2-.4-.2-.3zm0-2.4l-.2.4.2.4h.4l.2-.4-.2-.4zm0 4.7l-.2.4.2.3h.4l.2-.3-.2-.4zm0 9.4l-.2.3.2.4h.4l.2-.4-.2-.3zm0 9.3l-.2.4.2.3h.4l.2-.3-.2-.4zm2-55.2l-.2.3.2.4h.4l.2-.4-.2-.3zM45 7l-.2.4.2.4h.4l.2-.4-.2-.4zm0 4.7l-.2.4.2.3h.4l.2-.3-.2-.4zm0 2.3l-.2.4.2.4h.4l.2-.4-.2-.4zm-2 48.3l-.2.3.2.4h.4l.2-.4-.2-.3zm2-60l-.2.4.2.4h.4l.2-.4-.2-.3zm-1.6 29.3H43l-.2.3.1.2v.2l.1.3h.5l.2-.3-.1-.2v-.2zm-24.8-21l-.2.3.2.4h.4l.2-.4-.2-.3zm-2 41.2l-.2.4.2.3h.4l.2-.4-.2-.3zm0 9.3l-.2.4.2.4h.4l.2-.4-.2-.4zm0-7l-.2.4.2.4h.4l.2-.4-.2-.4zm0-7l-.2.4.2.4h.4l.2-.4-.2-.4zm2-45.9l-.2.4.2.4h.4l.2-.4-.2-.4zm-2 31.9l-.2.4.2.3h.4l.2-.3-.2-.4zm0 2.3l-.2.4.2.4h.4l.2-.4-.2-.4zm0 9.4l-.2.4.2.3h.4l.2-.3-.2-.4zm2-20.2l-.2.4.2.3h.4l.2-.3-.2-.4zm0-2.3l-.2.3.2.4h.4l.2-.4-.2-.3zm-4 12l-.2.3.2.4h.4l.2-.4-.2-.3zm2-3.9l-.2.4.2.4h.4l.2-.4-.2-.4zm2-12.8l-.2.3.2.4h.4l.2-.4-.2-.3zm0-4.7l-.2.4.2.3h.4l.2-.3-.2-.4zM39 24.5l-.2.4.2.4h.4l.2-.4-.2-.4zm-20.3-9.3l-.2.4.2.3h.4l.2-.3-.2-.4zm-4 30.7l-.2.4.2.3h.4l.2-.3-.2-.4zm0 4.7l-.2.3.2.4h.4l.2-.4-.2-.3zm0-2.4l-.2.4.2.4h.4l.2-.4-.2-.4zm0 4.7l-.2.4.2.3h.4l.2-.3-.2-.4zm4-19l-.2.4.2.4h.4l.2-.4-.2-.4zm-4 7.4l-.2.3.2.4h.4l.2-.4-.2-.4zm0 2.3l-.2.4.2.3h.4l.2-.3-.2-.4zm0 18.7l-.2.4.2.3h.4l.2-.4-.2-.3zm2-46l-.2.4.2.4h.4l.2-.4-.2-.3zm-2 39l-.2.3.2.4h.4l.2-.4-.2-.3zm2-34.2l-.2.3.2.4h.4l.2-.4-.2-.4zm0-7l-.2.3.2.4h.4l.2-.4-.2-.4zm0 9.3l-.2.4.2.3h.4l.2-.3-.2-.4zm0-18.7l-.2.4.2.4h.4l.2-.5-.2-.4zm-1.6 26.8h-.4l-.3.4.1.2v.1l.1.4h.5l.2-.4-.1-.1v-.2zm1.6-29.2l-.2.4.2.4h.4l.2-.4-.2-.4zm2 17.6l-.2.3.2.4h.4l.2-.4-.2-.3zm2 17.8l-.2.4.2.4h.4l.2-.4-.2-.4zm0 2.4l-.2.3.2.4h.4l.2-.4-.2-.3zm0 4.6l-.2.4.2.4h.4l.2-.4-.2-.4zM7 36.2h-.5l-.2.4.1.1v.2l.1.4H7l.2-.4V36.6zM20.8 33l-.2.4.2.4h.4l.2-.4-.2-.4zm0-14.3l-.2.4.2.3h.4l.2-.3-.2-.4zm0 9.3l-.2.4.2.4h.4l.2-.4-.3-.4zm0-4.6l-.2.3.2.4h.4l.2-.4-.2-.3zm0-2.4l-.2.4.2.4h.4l.2-.4-.3-.4zm0 40l-.2.4.2.4h.4l.2-.4-.2-.3zm0-2.3l-.2.4.2.4h.4l.2-.4-.2-.4zm.4-28.3h-.4l-.2.3v.4l.2.4h.4l.2-.4v-.4zm-.4 21.3l-.2.4.2.4h.4l.2-.4-.2-.4zm0-2.3l-.2.4.2.3h.4l.2-.3-.2-.4zm0-2.3l-.2.3.2.4h.4l.2-.4-.2-.3zm0 7l-.2.3.2.4h.4l.2-.4-.2-.3zm-2-10.5l-.2.3.2.4h.4l.2-.4-.2-.3zm0 9.3l-.2.4.2.3h.4l.2-.3-.2-.4zm0 2.3l-.2.4.2.4h.4l.2-.4-.2-.4zm0-4.6l-.2.3.2.4h.4l.2-.4-.2-.3zm0-9.4l-.2.4.2.4h.4l.2-.4-.2-.4zm0 23.4l-.2.4.2.3h.4l.2-.3-.2-.4zm0-16.4l-.2.4.2.4h.4l.2-.4-.2-.4zm0-2.3l-.2.4.2.3h.4l.2-.3-.2-.4zm.4-14.4h-.5l-.2.4v.4l.2.3h.4l.2-.3v-.4zm-.5 30.8l-.2.3.2.4h.4l.2-.4-.2-.4zm2-48.3l-.2.4.2.4h.4l.2-.4-.2-.4zm0-4.6l-.2.3.2.4h.4l.2-.4-.2-.3zm0 2.3l-.2.4.2.3h.4l.2-.3-.2-.4zm0 4.7l-.2.3.2.4h.4l.2-.4-.2-.3zm0-14l-.2.3.2.4h.4l.2-.4-.2-.3zm0 4.6l-.2.4.2.4h.4l.2-.4-.2-.4zm0 35.4l-.2.4.2.4h.4l.2-.4-.2-.4zM10.6 15.2l-.2.4.2.3h.4l.2-.3-.2-.4zm0-4.7l-.2.4.2.3h.4l.2-.3-.2-.4zm0-2.3l-.2.3.2.4h.4l.2-.4-.2-.3zm0 9.3l-.2.4.2.4h.4l.2-.4-.2-.4zm0 2.4l-.2.3.2.4h.4l.2-.4-.2-.3zm0-14l-.2.3.2.4h.4l.2-.4-.2-.4zm0-4.7l-.2.4.2.3h.4l.2-.3-.2-.4zm0 2.3l-.2.4.2.4h.4l.2-.4-.2-.4zm0 42.4l-.2.4.2.3h.4l.2-.3-.2-.4zm0-4.7l-.2.4.2.4h.4l.2-.4-.2-.4zm0-2.3l-.2.4.2.3h.4l.2-.3-.2-.4zM9 35h-.4l-.2.4V35.7l.2.4H9l.2-.4V35.4zm1.6-12.8l-.2.4.2.3h.4l.2-.3-.2-.4zm0 7l-.2.4.2.3h.4l.2-.3-.2-.4zm0 7.3l-.2.4.2.4h.4l.2-.4-.2-.4zm0-2.3l-.2.4.2.3h.4l.2-.3-.2-.4zm-2 10.5l-.2.4.2.4H9l.2-.4-.2-.4zm0-26l-.2.4.2.4H9l.2-.4-.2-.4zm0-4.7l-.2.4.2.4H9l.2-.4L9 14zm0 7l-.2.4.2.4H9l.2-.4L9 21zm0-14l-.2.4.2.4H9l.2-.4L9 7zm0-2.3l-.3.3.3.4H9l.2-.4-.2-.3zm0 23.3l-.2.4.2.3H9l.2-.3L9 28zm0-16.4l-.2.4.2.4H9l.2-.4-.2-.3zm0 51.8l-.2.4.2.3H9l.2-.3-.2-.4zm0-14l-.2.4.2.3H9l.2-.4-.2-.3zm0 2.3l-.2.4.2.4H9l.2-.4-.2-.4zm0-19l-.2.4.2.4H9l.2-.4-.2-.4zm0 26l-.2.4.2.4H9l.2-.4-.2-.4zm0-21l-.2.4.2.4H9l.2-.4-.2-.4zm2 10.5l-.2.4.2.4h.4l.2-.4-.2-.4zm-2-5.8l-.2.4.2.3H9l.2-.3-.2-.4zm4.4 3l.2-.3-.2-.4h-.4l-.2.4.2.4zm-.4 13.3l-.2.4.2.4h.4l.2-.4-.2-.4zm0-2.3l-.2.4.2.3h.4l.2-.3-.2-.4zm0 7l-.2.4.2.3h.4l.2-.3-.2-.4zm2-62.2l-.2.3.2.4h.4l.2-.4-.2-.3zM13 32.7h-.4l-.2.4V33.4l.2.4h.4l.2-.4V33.1zm0 19.8l.2-.4-.2-.4h-.4l-.2.4.2.4zm0 2.3l.2-.4-.2-.3h-.4l-.2.3.2.4zm1.6-30.3l-.2.4.2.4h.4l.2-.4-.2-.4zm-2 17.9l-.2.4.2.3h.4l.2-.3-.2-.4zm2-22.5l-.2.3.2.4h.4l.2-.4-.2-.3zm0 2.3l-.2.4.2.3h.4l.2-.3-.2-.4zm0-4.7l-.2.4.2.4h.4l.2-.4-.2-.4zm0-7l-.2.4.2.4h.4l.2-.4-.2-.4zm0-7l-.2.4.2.4h.4l.2-.4-.2-.4zm0 9.4l-.2.3.2.4h.4l.2-.4-.2-.3zm0 2.3l-.2.4.2.3h.4l.2-.3-.2-.4zm-2 12.8l-.2.4.2.3h.4l.2-.3-.2-.4zM11 31.5h-.4l-.2.4V32.2l.2.4h.4l.2-.4V32zm2-21.4l.2-.4-.2-.3h-.4l-.2.3.2.4zm0 30.7l.2-.4-.2-.3h-.4l-.2.3.2.4zm-.4-38.5l-.2.4.2.4h.4l.2-.4-.2-.4zm-2 50.6l-.2.4.2.3h.4l.2-.3-.2-.4zm0 7l-.2.4.2.3h.4l.2-.3-.2-.4zm0 2.3l-.2.4.2.4h.4l.2-.4-.2-.4zM13 5.4l.2-.4-.2-.3h-.4l-.2.3.2.4zm-.4 20.3l-.2.4.2.3h.4l.2-.3-.2-.4zm-2 24.9l-.2.3.2.4h.4l.2-.4-.2-.3zm2-15.6l-.2.4.1.2v.1l.1.4h.4l.2-.4V35.4L13 35zm.4-13.2l.2-.4-.2-.4h-.4l-.2.4.2.3zm0 2.3l.2-.4-.2-.3h-.4l-.2.3.2.4zm-.4-12.4l-.2.4.2.3h.4l.2-.4-.2-.3zm.4 3l.2-.3-.2-.4h-.4l-.2.4.2.3zm50.3 2.8l-.2.4.2.4h.4l.2-.4-.2-.4zM47.1 34l-.2.4.2.3h.4l.2-.4-.2-.3zm0 7.3l-.2.4.2.4h.4l.2-.4-.2-.4zm0 23.4l-.2.4.2.4h.4l.2-.4-.2-.4zm0-37.7l-.2.3.2.4h.4l.2-.4-.2-.3zm0 21.3l-.2.4.2.4h.4l.2-.4-.2-.4zm0 9.4l-.2.4.2.4h.4l.2-.4-.2-.4zm0-2.4l-.2.4.2.4h.4l.2-.4-.2-.4zm0-30.7l-.2.4.2.4h.4l.2-.4-.2-.4zm0 21.4l-.2.4.2.3h.4l.2-.3-.2-.4zM28.8 65.8v.2h.6l-.1-.2zm4.1 0l-.1.2h.7l-.2-.2zm-8.1 0l-.1.2h.7l-.2-.2zM47 17.5l-.2.4.2.4h.4l.2-.4-.2-.4zm0-7l-.2.4.2.4h.4l.2-.4-.2-.4zm0 4.7l-.2.4.2.3h.4l.2-.3-.2-.4zM37 65.8l-.1.2h.7l-.2-.2zm12.2-14l-.2.3.2.4h.4l.2-.4-.2-.3zm0-9.4l-.2.4.2.4h.4l.2-.4-.2-.4zm0 2.4l-.2.3.2.4h.4l.2-.4-.2-.4zm0 2.3l-.2.4.2.3h.4l.2-.3-.2-.4zm0-7l-.2.4.2.3h.4l.2-.3-.2-.4zm0-28.4l-.2.4.2.4h.4l.2-.4-.2-.4zm0 37.7l-.2.4.2.4h.4l.2-.4-.2-.4zm0-14.3l-.2.4.2.3h.4l.2-.3-.2-.4zM22.8 64.6l-.2.4.2.3h.4l.2-.3-.2-.4zM49 54l-.2.3.2.4h.5l.2-.4-.2-.3zm0-40l-.2.3.2.4h.5l.2-.4-.2-.4zm0 2.3l-.2.4.2.3h.5l.2-.3-.2-.4zm0-7l-.2.4.2.3h.5l.2-.3-.2-.4zm0 9.3l-.2.4.2.4h.5l.2-.4-.2-.4zm0 4.7l-.2.4.2.4h.5l.2-.4-.2-.4zm-22.3-5.9l-.2.4.2.4h.4l.3-.4-.3-.4zM49.1 21l-.2.4.2.3h.5l.2-.3-.2-.4zM24.8 42.4l-.2.4.2.3h.4l.2-.3-.2-.4zm0 2.3l-.2.4.2.4h.4l.2-.4-.2-.4zm0-4.6l-.2.3.2.4h.4l.2-.4-.2-.3zm0 9.3l-.2.4.2.3h.4l.2-.3-.2-.4zm0-2.3l-.2.3.2.4h.4l.2-.4-.2-.3zM49 58.7l-.2.4.2.4h.5l.2-.4-.2-.4zM24.8 21l-.2.4.2.3h.4l.2-.3-.2-.4zm0 14l-.2.4.2.3h.4l.2-.3-.2-.4zm0-7l-.2.4.2.3h.4l.2-.3-.2-.4zm0-4.7l-.2.4.2.4h.4l.2-.4-.2-.4zm2-10.5l-.2.4.2.3h.4l.2-.3-.2-.4zm0 2.3l-.2.4.2.4h.4l.2-.4-.2-.4zm0-4.6l-.2.3.2.4h.4l.2-.4-.2-.3zm-2 41.2l-.2.4.2.3h.4l.2-.3-.2-.4zm0 7l-.2.4.2.3h.4l.2-.3-.2-.4zm2-50.6l-.2.4.2.4h.4l.2-.4-.2-.4zm-2 46l-.2.3.2.4h.4l.2-.4-.2-.4zm0-40l-.2.3.2.4h.4l.2-.4-.2-.4zm-2 31.8l-.2.4.2.3h.4l.2-.3-.2-.4zm0-19l-.2.4.2.3h.4l.2-.3-.2-.4zm0 14.3l-.2.4.2.4h.4l.2-.4-.2-.4zm0-7.3l-.2.4.2.3h.4l.2-.3-.2-.4zm0-18.7l-.2.4.2.4h.4l.2-.4-.2-.4zm0 2.3l-.2.4.2.4h.4l.2-.4-.2-.4zm0 7l-.2.4.2.4h.4l.2-.4-.2-.4zm0 23.7l-.2.4.2.4h.4l.2-.4-.2-.4zm0-37.7l-.2.4.2.4h.4l.2-.4-.2-.4zm2 5.9l-.2.3.2.4h.4l.2-.4-.2-.3zm0-4.7l-.2.4.2.3h.4l.2-.3-.2-.4zm0 7l-.2.4.2.3h.4l.2-.3-.2-.4zm-2 38.9l-.2.4.2.3h.4l.2-.3-.2-.4zm0-2.3l-.2.3.2.4h.4l.2-.4-.2-.4zm2-46l-.2.4.2.4h.4l.2-.4-.2-.3zM49 28l-.2.4.2.3h.5l.2-.3-.2-.4zm10.2-1.2l-.2.4.2.4h.4l.2-.4-.2-.4zm0-9.3l-.2.3.2.4h.4l.2-.4-.2-.3zm0 7l-.2.3.2.4h.4l.2-.4-.2-.3zm-2 29.5l-.2.4.2.4h.4l.2-.4-.2-.4zm-2-12.8l-.2.3.2.4h.4l.2-.4-.2-.3zm4 14l-.2.3.2.4h.5l.2-.4-.2-.3zm0-7l-.2.3.2.4h.5l.2-.4-.2-.3zm0 2.3l-.2.4.2.3h.5l.2-.3-.2-.4zm-4 4.7l-.2.3.2.4h.4l.2-.4-.2-.3zm4 2.3l-.2.4.2.4h.5l.2-.4-.2-.4zm-4-7l-.2.4.2.4h.4l.2-.4-.2-.4zm0-2.3l-.3.4.2.4h.4l.2-.4-.2-.4zm0 9.3l-.3.5.2.4h.4l.2-.4-.2-.4zm2-5.8l-.2.4.2.3h.4l.2-.3-.2-.4zm0-30.7l-.2.3.2.4h.4l.2-.4-.2-.3zm0 2.3l-.2.4.2.3h.4l.2-.3-.2-.4zm2-3.5l-.2.4.2.3h.4l.2-.3-.2-.4zM20.7 0l-.2.4.2.3h.4l.3-.3L21 0zm42.6 53l-.2.3.2.3h.5l.2-.3-.2-.4zM45.1 0l-.2.4.2.3h.4l.2-.3-.2-.4zm20.3 54l-.2.4.2.4h.4l.2-.4-.2-.3zm-4-37.6l-.3.3.2.4h.4l.2-.4-.2-.3zm4 30.7l-.2.3.2.4h.4l.2-.4-.2-.3zm0-23.7l-.2.3.2.4h.4l.2-.4-.2-.3zm.4-6.3l.2-.4-.2-.3h-.4l-.2.3.2.4zm-4.5 6.3l-.2.3.2.4h.4l.2-.4-.2-.3zm2-1.2l-.2.4.2.3h.4l.2-.3-.2-.4zm-2 22.5l-.2.4.2.4h.4l.2-.4-.2-.4zm0-30.7l-.2.4.2.4h.4l.2-.4-.2-.4zm2 34.2l-.2.4.2.4h.4l.3-.4-.2-.4zm-2-1.1l-.2.3.2.4h.4l.2-.4-.2-.3zm0 7l-.2.3.2.4h.4l.2-.4-.2-.3zM49.1 65.8l-.1.2h.7l-.1-.2zm2-17.6l-.1.4.2.4h.4l.2-.4-.2-.4zm0 9.4l-.1.4.2.4h.4l.2-.4-.2-.4zm0-7l-.2.4.2.3h.5l.2-.3-.2-.4zm0-9.4l-.2.4.2.4h.5l.2-.4-.2-.4zm0 23.4l-.1.4.2.4h.4l.2-.4-.2-.4zm4.1-28.4l-.2.4.2.4h.4l.2-.4-.2-.4zm-4 2.7l-.3.4.2.3h.5l.2-.3-.2-.4zm0 23.4l-.3.3.2.4h.5l.2-.4-.2-.3zm0-44.8l-.3.4.2.4h.5l.2-.4-.2-.4zm0-9.3l-.2.4.2.3h.4l.2-.4-.2-.3zm0 25.7l-.3.4.2.3h.5l.2-.3-.2-.4zm2-22.2l-.3.4.2.3h.5l.2-.3-.2-.4zm-2-1.2l-.3.4.2.4h.5l.2-.4-.2-.4zm0 9.4l-.3.3.2.4h.5l.2-.4-.2-.3zm0 11.7l-.3.3.2.4h.5l.2-.4-.2-.3zm0-4.7l-.3.4.2.3h.5l.2-.3-.2-.4zm2-10.5l-.3.3.2.4h.5l.2-.4-.2-.3zm2 1.1l-.3.4.2.4h.5l.2-.4-.2-.4zm0-7l-.3.4.2.4h.5l.2-.4-.2-.4zm-2 48.3l-.3.3.2.4h.5l.2-.4-.2-.3zm0 2.3l-.3.4.2.3h.5l.2-.3-.2-.4zm2-41.2l-.3.4.2.3h.5l.2-.3-.2-.4zm0 7l-.3.4.2.3h.5l.2-.3-.2-.4zm0-2.4l-.2.4.2.4h.4l.2-.4-.2-.4zm-2 22.6l-.3.3.2.4h.5l.2-.4-.2-.3zm0-19l-.3.4.2.3h.5l.2-.3-.2-.5zm0-2.4l-.3.4.2.4h.5l.2-.4-.2-.4zm0 4.7l-.3.4.2.4h.5l.2-.4-.2-.4zm0 26l-.3.4.2.4h.5l.2-.4-.2-.4zm0-4.7l-.3.4.2.4h.5l.2-.4-.2-.4zm0-9.3l-.3.4.2.3h.5l.2-.3-.2-.4zm0-21.4l-.2.4.2.4h.4l.2-.4-.2-.4zM35.3 31.5H35l-.2.4.1.2v.1l.1.4h.5l.2-.4-.1-.1v-.2zm-.4-9.3l-.2.4.2.3h.5l.2-.3-.2-.4zm0 4.7l-.2.3.2.4h.5l.2-.4-.2-.3zm0 7.3l-.2.4.2.3h.5l.2-.3-.2-.4zm0-5l-.2.4.2.3h.5l.2-.3-.2-.4zm0-4.7l-.2.4.2.4h.5l.2-.4-.2-.4zm0-9.3l-.2.4.2.3h.5l.2-.3-.2-.4zm0 4.7l-.2.3.2.4h.5l.2-.4-.2-.3zm0-2.4l-.2.4.2.4h.5l.2-.4-.2-.4zm0 37.7l-.2.4.2.4h.5l.2-.4-.2-.4zm0-7l-.2.4.2.4h.5l.2-.4-.2-.4zm0 2.4l-.2.3.2.4h.5l.2-.4-.2-.3zm0 2.3l-.2.4.2.4h.5l.2-.4-.2-.4zm0-42.4l-.2.4.2.4h.5l.2-.4-.2-.4zM35 46l-.2.4.2.3h.5l.2-.3-.2-.4zm0-7l-.2.4.2.4h.5l.2-.4-.2-.4zm0 2.3l-.2.4.2.4h.5l.2-.4-.2-.4zm0-4.6l-.2.3.2.4h.5l.2-.4-.2-.3zm-2 15.2l-.2.3.2.4h.5l.2-.4-.2-.3zm0-9.4l-.2.4.2.3h.5l.2-.3-.2-.4zm0 7l-.2.4.2.3h.5l.2-.3-.2-.4zm2-41.2l-.2.4.2.3h.5l.2-.3-.2-.4zm-2 29.5l-.2.4.2.4h.5l.2-.4-.2-.4zm0-9.7l-.2.4.2.4h.5l.2-.4-.2-.4zm0 4.7l-.2.4.2.4h.5l.2-.4-.2-.4zm0 12l-.2.4.2.4h.5l.2-.4-.2-.4zm2-41.2l-.2.4.2.3h.5l.2-.3-.2-.4zm0 2.3l-.2.4.2.4h.5l.2-.4-.2-.4zm0-4.6l-.2.3.2.4h.5l.2-.4-.2-.3zm-2 62.2l-.2.4.2.4h.5l.2-.4-.2-.4zm.5-28.4h-.5l-.2.4.1.2v.1l.1.4h.5l.2-.4-.1-.1v-.2zm-.5 19l-.2.4.2.4h.5l.2-.4-.2-.4zm0 4.7l-.2.4.2.4h.5l.2-.4-.2-.4zm4.5-26H37l-.2.4V33.4l.2.4h.4l.2-.4V33.1zM33 23.4l-.2.3.2.4h.5l.2-.4-.2-.3zM37 58.7l-.2.4.2.4h.4l.2-.4-.2-.4zm0-14l-.2.4.2.4h.4l.2-.4-.2-.4zm0 11.7l-.2.4.2.4h.4l.2-.4-.2-.4zm0 7l-.2.4.2.4h.4l.2-.4-.2-.4zm0-16.3l-.2.3.2.4h.4l.2-.4-.2-.3zm0 7l-.2.3.2.4h.4l.2-.4-.2-.3zm0-2.4l-.2.4.2.4h.4l.2-.4-.2-.4zm.4-16.6H37l-.2.3v.4l.2.3h.4l.2-.3v-.4zM39 15l-.2.5.2.3h.4l.2-.3-.2-.4zm0 2.4l-.2.4.2.4h.4l.2-.4-.2-.4zm-4 40l-.3.4.2.4h.4l.3-.4-.3-.3zm4-47l-.2.4.2.3h.4l.2-.3-.2-.4zM26.8 20l-.2.3.2.4h.4l.3-.4-.3-.3zm12.2-7l-.2.3.2.4h.4l.2-.4-.2-.3zm0-11.7l-.2.3.2.4h.4l.2-.4-.2-.3zm0 18.7l-.2.3.2.4h.4l.2-.4-.2-.3zm-2 22.5l-.2.4.2.3h.4l.2-.3-.2-.4zm0-37.7l-.2.3.2.4h.4l.2-.4-.2-.4zm0 4.7l-.2.3.2.4h.4l.2-.4-.2-.3zm-2 52.9l-.2.3.2.4h.4l.2-.4-.2-.4zm4-40.1l-.2.4.2.3h.4l.2-.3-.2-.4zm-2-10.5l-.2.4.2.3h.4l.2-.4-.2-.3zm-2 48.2l-.2.4.2.4h.4l.2-.4-.2-.4zm2-57.6l-.2.4.2.4h.4l.2-.4-.2-.4zm0 23.4l-.2.4.2.3h.4l.2-.3-.2-.4zm0 2.3l-.2.4.2.3h.4l.2-.3-.2-.4zm0 12l-.2.4.2.3h.4l.2-.3-.2-.4zm0-26l-.2.4.2.3h.4l.2-.3-.2-.4zm0 2.3l-.2.4.2.4h.4l.2-.4-.2-.4zm0 7l-.2.4.2.4h.4l.2-.4-.2-.4zm0-2.3l-.2.4.2.3h.4l.2-.3-.2-.4zm2-17.5l-.2.4.2.3h.4l.2-.3-.2-.4zM28.9 16.4l-.3.3.2.4h.5l.2-.4-.2-.3zm0-11.7l-.3.3.2.4h.5l.2-.4-.2-.4zm0 2.3l-.3.4.2.3h.5l.2-.3-.2-.4zm0 7l-.3.4.2.3h.5l.2-.3-.2-.4zm0-2.3l-.3.3.2.4h.5l.2-.4-.2-.3zm-2 48.2l-.3.4.2.3h.5l.2-.3-.2-.4zm0 2.3l-.3.4.2.4h.5l.2-.4-.2-.4zm0 2.4l-.3.4.2.3h.5l.2-.3-.2-.4zm2-34.2l-.3.3.2.4h.5l.2-.4-.2-.3zm-2 27.2l-.3.3.2.4h.5l.2-.4-.2-.3zm2-19.9l-.3.4.2.3h.5l.2-.3-.2-.4zm0-9.7l-.3.4.2.4h.5l.2-.4-.2-.4zm0-7l-.3.4.2.4h.5l.2-.4-.2-.4zm0 4.7l-.3.4.2.3h.5l.2-.3-.2-.4zm0-7l-.3.4.2.3h.5l.2-.3-.2-.4zm0 23.7l-.3.4.2.3h.5l.2-.3-.2-.4zm4-21.4l-.2.4.2.3h.4l.2-.3-.2-.4zm-6 8.2l-.3.4.2.3h.4l.2-.3-.2-.4zm0 7l-.3.3.2.4h.4l.2-.4-.2-.3zm0-2.4l-.3.4.2.4h.4l.2-.4-.2-.4zm0-2.3l-.3.4.2.3h.4l.2-.3-.2-.4zm0-9.3l-.3.3.2.4h.4l.2-.4-.2-.3zm0 2.3l-.3.4.2.3h.4l.2-.3-.2-.4zm0 2.3l-.3.4.2.4h.4l.2-.4-.2-.4zm0 12l-.3.4.2.4h.4l.2-.4-.2-.4zm0 11.7l-.3.4.2.3h.4l.2-.3-.2-.4zm0 2.3l-.3.4.2.4h.4l.2-.4-.2-.4zm0-4.6l-.3.3.2.4h.4l.2-.4-.2-.3zm0-7l-.3.3.2.4h.4l.2-.4-.2-.3zm0 4.6l-.3.4.2.4h.4l.2-.4-.2-.4zm0 9.4l-.3.4.2.3h.4l.2-.3-.2-.4zm0-11.7l-.3.4.2.3h.4l.2-.3-.2-.4zm2-20.2l-.3.4.2.3h.4l.2-.3-.2-.4zm2 27.2l-.3.4.2.4h.4l.2-.4-.2-.4zm0 4.7l-.3.4.2.3h.4l.2-.3-.2-.4zm0-7l-.3.4.2.3h.4l.2-.3-.2-.4zm0 9.3l-.3.4.2.4h.4l.2-.4-.2-.4zm0-4.6l-.3.3.2.4h.4l.2-.4-.2-.3zm-2-8.2l-.3.4.2.3h.4l.2-.3-.2-.4zm2 1.2l-.3.3.2.4h.4l.2-.4-.2-.3zm0-4.7l-.3.3.2.4h.4l.2-.4-.2-.3zm0-16.7l-.3.4.2.3h.4l.2-.3-.2-.4zm2-10.5l-.3.3.2.4h.4l.2-.4-.2-.3zm0-2.4l-.3.4.2.4h.4l.2-.4-.2-.4zm0 7l-.3.4.2.4h.4l.2-.4-.2-.4zm0-11.6l-.2.4.2.3h.4l.2-.3-.2-.4zm-1.6 29.2h-.4l-.2.4V36.9l.2.4h.4l.2-.4V36.6zm1.6-31.5l-.2.3.2.4h.4l.2-.4-.2-.4zm-1.6 33.8h-.4l-.2.4v.4l.2.3h.4l.2-.3v-.4zM30.9 27l-.2.3.2.4h.4l.2-.4-.2-.3zm-2 27.2l-.2.3.2.4h.4l.2-.4-.2-.3zm0 2.3l-.2.4.2.3h.4l.2-.3-.2-.4zm0 4.7l-.2.3.2.4h.4l.2-.4-.2-.3zm0-9.4l-.2.4.2.4h.4l.2-.4-.2-.4zm0 7l-.2.4.2.4h.4l.2-.4-.2-.4zm0-11.6l-.2.3.2.4h.4l.2-.4-.2-.3zm0 2.3l-.2.4.2.3h.4l.2-.3-.2-.4zm2-43.6l-.2.4.2.4h.4l.2-.4-.2-.4zM29.3 35h-.5l-.2.4.1.2v.1l.1.4h.5l.2-.4-.1-.1v-.2zM30.9 20l-.2.3.2.4h.4l.2-.4-.2-.3zm0-4.7l-.2.4.2.3h.4l.2-.3-.2-.4zm0 2.3l-.2.4.2.4h.4l.2-.4-.2-.4zm0 4.7l-.2.4.2.3h.4l.2-.3-.2-.4zm0-14l-.2.4.2.3h.4l.2-.3-.2-.4zm0 2.3l-.2.4.2.4h.4l.2-.4-.2-.4z"/>
    <path fill="#ee2842" d="M.1 40L23.2 0H0v39.8l.1.2z"/>
    <path fill="#e00e2a" d="M0 0v15a9 9 0 008-4.6L14 0z"/>
    <path fill="#31c4f0" d="M39.3 42l13.8 24H66V20H52L39.3 42z"/>
    <path fill="#fff" d="M63.6 48H66V0h-2.4L49.7 24l13.9 24z"/>
  </g>
</svg>
