<svg xmlns="http://www.w3.org/2000/svg" viewBox="0 0 64 64">
  <g id="Layer_2" data-name="Layer 2">
    <g id="Icons">
      <g id="gfx_provider">
        <rect id="Container" width="64" height="64" fill="#b1f5ff"/>
        <path d="M47.89,42.53A18,18,0,0,0,37.58,34.7l-.06,0-.41-.11-.6-.15-.61-.14-.78-.14-.46-.07c-.36-.05-.73-.09-1.1-.12h-.18q-.69-.06-1.38-.06c-.46,0-.91,0-1.36.05l-.16,0c-.38,0-.75.07-1.12.12l-.48.07-.76.14-.63.14-.57.15-.42.1-.06,0a18,18,0,0,0-10.33,7.84.8.8,0,0,0,.09.94A7.14,7.14,0,0,0,18,44.93l12.14,7a3.82,3.82,0,0,0,3.78,0l12.14-7a7.14,7.14,0,0,0,1.77-1.46A.8.8,0,0,0,47.89,42.53ZM27.75,36h.07l1-.21.73-.11.31,0a17.83,17.83,0,0,1,4.38,0l.34,0,.7.11.73.15.3.07.11,0c-.52,2.25-1.86,3.23-4.38,3.23s-3.82-1-4.35-3.24ZM33.63,46A1.63,1.63,0,1,1,32,44.41,1.63,1.63,0,0,1,33.63,46Zm11.6-2.49-12.14,7a2.2,2.2,0,0,1-2.18,0l-12.14-7a5.47,5.47,0,0,1-1-.72,16.43,16.43,0,0,1,8.32-6.36,5.23,5.23,0,0,0,5.07,4.32v2.14a3.23,3.23,0,1,0,1.6,0V40.79a5.26,5.26,0,0,0,5.09-4.31,16.36,16.36,0,0,1,8.3,6.35A5.47,5.47,0,0,1,45.23,43.55ZM27.14,31.29l1.39.81a6.81,6.81,0,0,0,6.94,0l1.24-.72a11,11,0,0,0,5.41-9.44v0a9.72,9.72,0,0,0-4.79-8.35l-.15-.08a10.22,10.22,0,0,0-10.36,0,10,10,0,0,0-4.94,8.64A10.68,10.68,0,0,0,27.14,31.29Zm.48-16.43a8.67,8.67,0,0,1,8.75,0l.15.09a8.11,8.11,0,0,1,4,7v0A9.38,9.38,0,0,1,35.9,30l-1.23.72a5.26,5.26,0,0,1-5.34,0L28,29.91a9.06,9.06,0,0,1-4.47-7.82A8.4,8.4,0,0,1,27.62,14.86Z" fill="#065dba"/>
      </g>
    </g>
  </g>
</svg>
