<svg xmlns="http://www.w3.org/2000/svg" viewBox="0 0 64 64" fill="#065dba">
  <g class="icon-pharmacy">
    <path d="M54,28v3.56A2.45,2.45,0,0,1,51.56,34H12.44A2.45,2.45,0,0,1,10,31.56V28H54m4-4H6v7.56A6.44,6.44,0,0,0,12.44,38H51.56A6.44,6.44,0,0,0,58,31.56Z"/>
    <path d="M49,8.9l-.9-.57-.28-.18a5.39,5.39,0,0,0-7.36,1.94L32.34,24H37l6.94-11.88a1.35,1.35,0,0,1,.88-.65,1.38,1.38,0,0,1,1.08.19l.86.58a1.4,1.4,0,0,1,.55,1.59L43.91,24h4.21l3-8.91A5.39,5.39,0,0,0,49,8.9Z" />
    <path d="M7.2,35.28a18.37,18.37,0,0,1,1.37,2L11.34,42a20,20,0,0,0,5.12,5.83l-2,5.12a.77.77,0,0,0,.71,1H48.87a.77.77,0,0,0,.71-1l-2-5.1A20.07,20.07,0,0,0,52.66,42l2-4a21.59,21.59,0,0,1,2.11-2.67ZM49.2,40a18,18,0,0,1-4.1,4.67l-2.4,1.85,1.15,2.88a.43.43,0,0,1-.4.59H20.55a.43.43,0,0,1-.4-.59l1.15-2.89-2.4-1.84A19.34,19.34,0,0,1,14.8,40a13.82,13.82,0,0,1-1-2H50A5.15,5.15,0,0,1,49.2,40Z"/>
  </g>
</svg>
