<?xml version="1.0" encoding="utf-8"?>
<!-- Generator: Adobe Illustrator 25.0.1, SVG Export Plug-In . SVG Version: 6.00 Build 0)  -->
<svg version="1.1" id="Layer_1" xmlns="http://www.w3.org/2000/svg" xmlns:xlink="http://www.w3.org/1999/xlink" x="0px" y="0px"
	 viewBox="0 0 700 500" style="enable-background:new 0 0 700 500;" xml:space="preserve">
<style type="text/css">
	.st0{fill:none;}
	.st1{fill:none;stroke:#000000;stroke-width:0.5;stroke-miterlimit:10;}
	.st2{opacity:0.1;fill:url(#SVGID_1_);}
</style>
<pattern  y="500" width="60.6" height="52.5" patternUnits="userSpaceOnUse" id="gfx_hex-pattern" viewBox="0.1 -61.4 60.6 52.5" style="overflow:visible;">
	<g>
		<rect x="0.1" y="-61.4" class="st0" width="60.6" height="52.5"/>
		<g>
			<polygon class="st1" points="30.5,-17.7 15.4,-26.4 15.4,-43.8 30.5,-52.5 45.5,-43.8 45.5,-26.4 			"/>
			<polygon class="st1" points="15.3,-9 0.2,-17.7 0.2,-35.1 15.3,-43.8 30.4,-35.1 30.4,-17.7 			"/>
			<polygon class="st1" points="45.5,-9 30.5,-17.7 30.5,-35.1 45.5,-43.8 60.6,-35.1 60.6,-17.7 			"/>
			<polygon class="st1" points="45.5,-26.4 30.5,-35.1 30.5,-52.5 45.5,-61.2 60.6,-52.5 60.6,-35.1 			"/>
			<polygon class="st1" points="30.5,-0.3 15.4,-9 15.4,-26.4 30.5,-35.1 45.5,-26.4 45.5,-9 			"/>
			<polygon class="st1" points="30.5,-35.2 15.4,-43.9 15.4,-61.3 30.5,-70 45.5,-61.3 45.5,-43.9 			"/>
			<polygon class="st1" points="15.3,-26.4 0.2,-35.1 0.2,-52.5 15.3,-61.2 30.4,-52.5 30.4,-35.1 			"/>
		</g>
	</g>
</pattern>
<pattern  id="SVGID_1_" xlink:href="#gfx_hex-pattern" patternTransform="matrix(1 0 0 -1 3.2 -15905.5625)">
</pattern>
<rect class="st2" width="700" height="500"/>
</svg>
