<svg id="gfx-hero-condition" xmlns:xlink="http://www.w3.org/1999/xlink" viewBox="0 0 306 292" preserveAspectRatio="xMidYMin slice">
  <defs>
    <linearGradient id="gfx-hero__gradient" x1="0%" x2="0%" y1="100%" y2="0%">
      <stop offset="0" stop-color="#e2f7fa" stop-opacity="0"/>
      <stop offset="0.5" stop-color="#b1f5ff"/>
      <stop offset="1" stop-color="#b1f5ff"/>
    </linearGradient>
  </defs>
  <g class="gfx-hero gfx-hero-condition">

    <polygon
        class="gfx-hero__secondary-bg"
        points="124.98 98 -54 408 306 408 306 98 124.98 98"
        fill="url(#gfx-hero__gradient)"
    />

    <g class="gfx-hero__main-content">
        <g class="gfx-hero__triangle">

            <polygon
                points="181.56 0 124.4 0 67.24 0 124.4 99 188.1 99 188.1 0 181.56 0"
                fill="#ee2842"
            />
            <path
                d="M118.4,1.58a24.88,24.88,0,0,0,0,24.84l35.32,61.16A24.82,24.82,0,0,0,168.28,99h15.28V0H119.32Z"
                fill="#e00e2a"
            />
        </g>

        <polygon points="181.56 0 124.4 99 306 99 306 0 181.56 0" fill="#092884"/>
        <path d="M306,100V70H213.93a30,30,0,0,0-26,15l-8.66,15Z" fill="#1b7fe3"/>
        <path d="M173.17,165.46H306V99H124.4l33.18,57.46A18,18,0,0,0,173.17,165.46Z" fill="#065dba"/>

        <path d="M124.4,99l45,77.88a18,18,0,0,0,15.59,9H306V40H158.46Z" fill="url(#hero-image)"/>
    </g>
  </g>
</svg>
