<svg xmlns="http://www.w3.org/2000/svg" viewBox="0 0 306 206" preserveAspectRatio="xMidYMin slice">
  <g class="gfx-provider-hero">
    <path d="M13.71,0A91.87,91.87,0,0,0,24.5,62.13l196,339.69a17.12,17.12,0,0,0,6.48,6.36,13.72,13.72,0,0,0,15.76-2,20.44,20.44,0,0,0,4.1-5L306,298.51V21.36L293.7,0Z" fill="#b1f5ff"/>
    <path d="M306,81.44H190.9l-29.6,51.34a51,51,0,0,0,0,50.95L231.2,304.8a17,17,0,0,0,14.72,8.5h51.69L306,298.74Z" fill="#f0fdff"/>
    <path d="M306,0H147.17a40.48,40.48,0,0,0,3.62,32.24l50.39,87.43,13.51,23a8.56,8.56,0,0,0,7.39,4.24H306Z" fill="#001964"/>
    <path d="M306,33.12H262.26a19.54,19.54,0,0,0-16.92,9.78l-38.83,67.28-5.33,9.49,74.67,129.18a14.68,14.68,0,0,0,12.71,7.34H306Z" fill="#ee2842"/>
    <path d="M306,41.26H277.88a15.93,15.93,0,0,0-13.78,8l-36.42,63.12L264.1,175.4a15.81,15.81,0,0,0,13.78,7.95H306Z" fill="#c5050c"/>
  </g>
</svg>
