<svg xmlns:xlink="http://www.w3.org/1999/xlink" viewBox="0 0 306 206" preserveAspectRatio="xMidYMin slice">
    <defs>
        <linearGradient id="gfx-hero__gradient" x1="0%" x2="0%" y1="100%" y2="0%">
            <stop offset="0" stop-color="#e2f7fa" stop-opacity="0"/>
            <stop offset="0.5" stop-color="#b1f5ff"/>
            <stop offset="1" stop-color="#b1f5ff"/>
        </linearGradient>
    </defs>
    <g class="gfx-hero gfx-hero-location">
        <polygon
            opacity=".9"
            class="gfx-hero__secondary-bg"
            points="306 102 124.98 102 -101.34 494 306 494 306 102"
            fill="url(#gfx-hero__gradient)"
        />

        <g class="gfx-hero__main-content">
            <g class="gfx-hero__triangle">
                <polygon
                    points="64.93 0 124.4 103 188.1 103 188.1 0 64.93 0"
                    fill="#ee2842"
                />
                <path
                    d="M118.4,5.58a24.88,24.88,0,0,0,0,24.84l35.32,61.16A24.82,24.82,0,0,0,168.28,103h17.63V0H121.63Z"
                    fill="#e00e2a"
                />
            </g>
            <g class="gfx-hero__top">
                <polygon points="183.87 0 124.4 103 306 103 306 0 183.87 0" fill="#092884"/>
                <path d="M306,8.15H245.47a41.89,41.89,0,0,0-36.3,21L166,103.87l.08.13H306Z" fill="#001964"/>
                <path d="M306,104V74H213.93a30,30,0,0,0-26,15l-8.66,15Z" fill="#1b7fe3"/>
            </g>
            <path class="gfx-hero__bottom" d="M173.17,169.46H306V103H124.4l33.18,57.46A18,18,0,0,0,173.17,169.46Z" fill="#065dba"/>

            <path class="gfx-hero__image" d="M124.4,103l49.8,86.25a6,6,0,0,0,5.19,3H306V44H158.46Z" fill="url(#hero-image)"/>
        </g>
    </g>
</svg>
