<svg xmlns:xlink="http://www.w3.org/1999/xlink" viewBox="0 0 306 206" preserveAspectRatio="xMidYMin slice">
  <defs>
    <linearGradient id="gfx-hero__gradient" x1="0%" x2="0%" y1="100%" y2="0%">
      <stop offset="0" stop-color="#b1f5ff" stop-opacity="0"/>
      <stop offset="0.28" stop-color="#b1f5ff" stop-opacity="0.14"/>
      <stop offset="0.41" stop-color="#b1f5ff" stop-opacity="0.25"/>
      <stop offset=".54" stop-color="#b1f5ff" stop-opacity="0.4"/>
      <stop offset=".92" stop-color="#b1f5ff" stop-opacity="0.88"/>
      <stop offset="1" stop-color="#b1f5ff"/>
    </linearGradient>
  </defs>
  <g class="gfx-hero gfx-hero-condition">
    <polygon class="gfx-hero__secondary-bg" points="306 100 124.58 100 -100.59 490 306 490 306 100" fill="url(#gfx-hero__gradient)"/>
    <g>
        <g class="gfx-hero__triangle">
            <polygon points="181.16 2 182.31 0 65.69 0 124 101 187.7 101 187.7 2 181.16 2" fill="#ee2842"/>
            <path d="M127.24,0l-.91,1.58a24.83,24.83,0,0,0,0,24.84l20.36,35.27L182.31,0Z" fill="#e00e2a"/>
        </g>
        <polygon points="182.31 0 124 101 306 101 306 0 182.31 0" fill="#001964"/>
        <path d="M306,102V50.3H194.59a9,9,0,0,0-7.79,4.5L159.55,102Z" fill="#092884"/>
        <path d="M306,102V60.44H227.69a18,18,0,0,0-15.61,9L193.29,102Z" fill="#065dba"/>
        <path d="M181.18,188H306V101H124l46.79,81A12,12,0,0,0,181.18,188Z" fill="#065dba"/>
        <path d="M206.61,123a18,18,0,0,0,15.61,9H306V101H193.91Z" fill="#1c7fe3"/>

        <path class="gfx-hero__image" d="M124,101l53.54,92.74a6,6,0,0,0,5.2,3H306V40H159.22Z" fill="url(#hero-image)"/>
    </g>
  </g>
</svg>
