<svg xmlns="http://www.w3.org/2000/svg" viewBox="0 0 306 206" preserveAspectRatio="xMidYMin slice">
    <defs>
        <linearGradient id="gfx-hero__gradient" x1="0%" x2="0%" y1="100%" y2="0%">
            <stop offset="0" stop-color="#e2f7fa" stop-opacity="0"/>
            <stop offset="0.8" stop-color="#b1f5ff"/>
            <stop offset="1" stop-color="#b1f5ff"/>
        </linearGradient>
    </defs>
    <g class="gfx-hero-home">
        <path
         fill="url(#gfx-hero__gradient)"
         d="M260.35,128.45l.6,1-49,85a6.42,6.42,0,0,1-5.54,3.19H112.47a7.29,7.29,0,0,1-6.32-3.65L59.7,133.54-109,425.75H306V128.45Z" />
        <path
            fill="#ee2842"
            d="M83.31,81.08,105.1,43.33a4,4,0,0,1,3.46-2H167V0H91.58L64.68,46.82a2,2,0,0,0,0,2Z"/>
        <path
            fill="#001964"
            d="M160,0,141.41,32.3a1.84,1.84,0,0,0,0,1.87C142.52,36,146,41.33,146,41.33H260l46,37.42V0Z"/>
        <polygon
            fill="#092884"
            points="223.27 49.18 306 49.18 306 0 194.88 0 223.27 49.18" />
        <path
            fill="#c5050c"
            d="M206.36,217.64H159.43L191.36,273a9.13,9.13,0,0,0,7.91,4.56H306V201.75S208.64,217.64,206.36,217.64Z"/>
        <path
            fill="#ee2842"
            d="M283.26,35.44a5.47,5.47,0,0,0-4.74-2.74H165a5.47,5.47,0,0,0-4.74,2.74l-3.4,5.89h48.26a6.75,6.75,0,0,1,5.84,3.36l48.95,84.79-49,85a6.42,6.42,0,0,1-5.54,3.19h-41.4l6.58,11.4a6.33,6.33,0,0,0,5.49,3.17H306V74.75Z"/>
        <polygon
            fill="#092884"
            points="306 173.42 272.08 232.16 306 290.91 306 173.42"/>
        <path
            fill="#065dba"
            d="M306,203.67l-13.79,23.89a9.13,9.13,0,0,0,0,9.13L306,260.58Z"/>
        <path
            fill="#e00e2a"
            d="M290.9,49.1H213.47l46.39,80.35-43,74.56h56.51a6.57,6.57,0,0,0,5.7-3.29l26.94-51v-75Z"/>
        <path
            fill="#e2f7fa"
            d="M188.94,49.18H119.66a12,12,0,0,0-10.39,6L75.62,113.47l35.57,61.61a5.35,5.35,0,0,0,4.64,2.68H189a5.38,5.38,0,0,0,4.52-2.48l38.14-59.92L193.53,51.78A5.36,5.36,0,0,0,188.94,49.18Z"/>
        <path
            fill="#c5050c"
            d="M306,97.73,286.11,63.28a5.44,5.44,0,0,0-4.72-2.72H220.2l39.66,68.89L241.76,161h39.63a5.44,5.44,0,0,0,4.72-2.72L306,123.8Z"/>

        <g class="gfx-hero-home__pattern" opacity="0.25" fill="none" stroke="#fff">
            <path fill="none" stroke-width="0.2" opacity="0.3"
                d="M216.23,2.69H191.35L178.87,24.2l10.79,18.6h18.75l1.68,2.91h6.14L228.67,24.2Zm87.11,64.5L290.9,88.7l12.44,21.47H306v-43ZM216.23,45.71h-6.14l15.49,26.83,3.09-5.35Zm37.35,21.48H228.67l-3.09,5.35,21.72,37.63h6.28L266,88.7Zm49.76,43L290.9,131.69l12.44,21.51H306v-43ZM266,174.68H241.14l-4.54-7.82L224.17,188.4l-4.5,7.79h9l12.47,21.51H266l12.44-21.51ZM253.58,153.2,266,131.69l-12.44-21.52H247.3l11,19.08L244.49,153.2Zm37.32-21.51H266L253.58,153.2,266,174.68H290.9l12.44-21.48Zm0,43H266l-12.44,21.51L266,217.7H290.9l12.44-21.51Zm12.44,21.51L290.9,174.68H266l12.44,21.51L266,217.7H290.9l12.44,21.48H306v-43Zm-83.67,0-11.26,19.5H190.18l1.17,2h24.88l12.44-21.51Zm4.5-7.79-4.5,7.79-11.26,19.5H190.18l1.17,2h24.88l12.44-21.51Zm29.41,7.79H228.67L216.23,217.7l12.44,21.48h24.91L266,217.7Zm49.76,43L290.9,260.69l12.44,21.51H306v-43ZM115.51,215.69l1.17,2h24.88l1.16-2Zm150.51,2-12.44,21.48H228.67l-12.44,21.51,12.44,21.51h24.91l24.88-43Zm37.32-107.53H278.46L266,131.69,253.58,153.2,266,174.68H290.9l12.44-21.48,2.66-4.58V114.76Zm0,43H278.46L266,174.68l12.44,21.51h24.88l2.66-4.58V157.78Zm0,0L290.9,174.68l12.44,21.51,2.66,4.58v-43ZM236.6,166.86,224.17,188.4l-4.5,7.79h9l12.47-21.51ZM266,174.68H241.14l-12.47,21.51,12.47,21.51H266l12.44-21.51Zm0,43H241.14l-12.47,21.48,12.47,21.51H266l12.44-21.51Zm24.88-43H266l12.44,21.51L266,217.7H290.9l12.44-21.51Zm0,0H266l12.44,21.51L266,217.7H290.9l12.44-21.51Zm0,0H266l12.44,21.51L266,217.7H290.9l12.44-21.51Zm12.44,64.5H278.46L266,260.69l12.44,21.51h24.88l2.66-4.58V243.76Zm-12.44-64.5H266l12.44,21.51L266,217.7H290.9l12.44-21.51Zm0,0H266l12.44,21.51L266,217.7H290.9l12.44-21.51Zm-125.63,41H117.84l-1.16,2,12.44,21.48H154l12.43-21.48Zm75.87,2-12.47-21.51L216.23,217.7l12.44,21.48h24.91L266,217.7Zm0,0-12.47-21.51L216.23,217.7l12.44,21.48h24.91L266,217.7Zm0,0-12.47-21.51L216.23,217.7l12.44,21.48h24.91L266,217.7Zm-74.71,0L154,239.18l12.43,21.51h24.92l12.44-21.51L191.35,217.7Zm74.71,0-12.47-21.51L216.23,217.7l12.44,21.48h24.91L266,217.7Zm0,0-12.47-21.51L216.23,217.7l12.44,21.48h24.91L266,217.7Zm0,0-12.47-21.51L216.23,217.7l12.44,21.48h24.91L266,217.7Zm-12.47,21.48H203.79l-12.44,21.51,12.44,21.51h24.88l12.47-21.51Zm74.67,43H278.46L266,303.68l12.44,21.51h24.88l2.66-4.58V286.78Zm0,43,2.66,4.58v-9.16ZM116.68,217.7H91.76L79.33,239.18l12.43,21.51h24.92l12.44-21.51Zm112,64.5H203.79l-12.44,21.48,12.44,21.51h24.88l12.47-21.51Zm74.67,86,2.66,4.58v-9.17Z"/>
            <path
                fill="none" stroke="#fff" stroke-width="0.1"
                d="M216.23,174.68h24.91l12.44,21.51L241.14,217.7H216.23m-87.11,21.48,12.44-21.48h24.87l12.44,21.48h24.92l12.44,21.51L203.79,282.2l12.44,21.48h24.91l12.44-21.48-12.44-21.51,12.44-21.51h24.88l12.44,21.51L278.46,282.2l12.44,21.48H306v-86H290.9l-12.44-21.51,12.44-21.51H306v-86H290.9l-12.44,21.47,12.44,21.52L278.46,153.2H253.58l-12.44-21.51,12.44-21.52L241.14,88.7H216.23L203.79,67.19l12.44-21.48L203.79,24.2H178.87L166.43,45.71" />
            <path
                fill="none" stroke="#fff" stroke-width="0.15" opacity="0.8"
                d="M178.87,23.22a1,1,0,1,0,1,1A1,1,0,0,0,178.87,23.22ZM216.23,302.7a1,1,0,1,0,1,1A1,1,0,0,0,216.23,302.7Zm-87.11-64.5a1,1,0,1,0,1,1A1,1,0,0,0,129.12,238.2Zm37.31-21.48a1,1,0,1,0,1,1A1,1,0,0,0,166.43,216.72Zm37.36,21.48a1,1,0,1,0,1,1A1,1,0,0,0,203.79,238.2Zm87.11,21.51a1,1,0,1,0,1,1A1,1,0,0,0,290.9,259.71Zm-49.79-172a1,1,0,1,0,1,1A1,1,0,0,0,241.11,87.72Zm49.79,43a1,1,0,1,0,1,1A1,1,0,0,0,290.9,130.71Zm0-41a1,1,0,1,0-1-1A1,1,0,0,0,290.9,89.68Zm0,127a1,1,0,1,0,1,1A1,1,0,0,0,290.9,216.72Zm-37.32,64.51a1,1,0,0,0,0,1.95,1,1,0,1,0,0-1.95ZM241.11,173.7a1,1,0,1,0,0,2,1,1,0,0,0,0-2Zm12.47,64.5a1,1,0,1,0,1,1A1,1,0,0,0,253.58,238.2Zm24.88-43a1,1,0,1,0,1,1A1,1,0,0,0,278.46,195.21Z"
            />
        </g>
        <path
            class="gfx-hero__image"
            fill="url(#hero-image)"
            d="M250.92,41.33H156.79l-46.15,79.93,45.6,79a1.89,1.89,0,0,0,1.63.94H252a1.87,1.87,0,0,0,1.63-.94L298.7,122.2a1.86,1.86,0,0,0,0-1.88L254.18,43.21A3.77,3.77,0,0,0,250.92,41.33Z"
        />
    </g>
</svg>