<svg id="gfx-hero-treatment" xmlns="http://www.w3.org/2000/svg" viewBox="0 0 306 206" preserveAspectRatio="xMidYMin slice">
    <g class="gfx-hero gfx-hero--treatment">
        <polygon
            class="gfx-hero__secondary-bg"
            fill="#cff7fa" opacity="0.5"
            points="2 0 169.79 290.63 169.92 290.42 169.92 290.63 306 290.63 306 0 169.92 0 169.92 0 2 0"
        />
        <path d="M128,2.5a13,13,0,0,0,0,13l68.12,118a13,13,0,0,0,11.26,6.5H306V0H129.42Z" fill="#ee2842"/>
        <path d="M146.81,7.26,201.51,102a12,12,0,0,0,10.39,6H306V0H145.28A12,12,0,0,0,146.81,7.26Z" fill="#001964"/>
        <path d="M306,350.94V156H234.1a19,19,0,0,0-16.45,9.5L110.58,350.94Z" fill="#ee2842"/>
        <path d="M306,350.94V156H278.1a19,19,0,0,0-16.45,9.5L154.58,350.94Z" fill="#001964"/>
        <path class="gfx-hero__image" d="M126,95l51.14,88.58a4.82,4.82,0,0,0,4.18,2.41H306V40H157.75Z" fill="url(#hero-image)"/>
        <path d="M219.59,317.78a19,19,0,0,0,0,19l7.57,13.11H306V168.11Z" fill="#065dba"/>
    </g>
</svg>
