<svg class="gfxHero gfxHero--generic" xmlns="http://www.w3.org/2000/svg" viewBox="0 0 306 206" preserveAspectRatio="xMidYMin slice">
    <g class="gfx-hero--generic gfx-hero">
        <polygon points="109.52 0.04 140.7 54.04 142.7 50.58 142.7 54.04 306 54.04 306 0.04 109.52 0.04" fill="#e2f7fa"/>
        <polygon points="306 54.04 140.7 54.04 -72.26 422.9 306 422.9 306 54.04" fill="#ee2842"/>
        <path d="M306,148H210a89.82,89.82,0,0,0-77.76,44.9L0,422H306Z" fill="#c5050c"/>
        <path d="M306,200H260.4a67.67,67.67,0,0,0-58.62,33.85l-108,187H306Z" fill="#ee2842"/>
        <polygon points="306 0 171.9 0 140.7 54.04 171.9 108.08 306 108.08 306 54.04 306 0" fill="#065dba"/>
        <path d="M206.16,167.43a18,18,0,0,0,15.54,9H306V54H140.7Z" fill="#001964"/>
    </g>
</svg>
