<svg id="gfx-hero-treatment" xmlns="http://www.w3.org/2000/svg" viewBox="0 0 306 292" preserveAspectRatio="xMidYMin slice">
    <g class="gfx-hero gfx-hero--treatment">
        <polygon class="gfx-hero__secondary-bg" points="6 0 173.79 290.63 173.92 290.42 173.92 290.63 306 290.63 306 0 173.92 0 173.92 0 6 0" fill="#e2f7fa"/>
        <path d="M128,2.5a13,13,0,0,0,0,13l68.13,118a13,13,0,0,0,11.26,6.5H306V0H129.42Z" fill="#ee2842"/>
        <path d="M142.81,8.74l54.7,94.75a12,12,0,0,0,10.39,6H306V0H141.54A12,12,0,0,0,142.81,8.74Z" fill="#001964"/>
        <path d="M306,328V156H235a19,19,0,0,0-16.45,9.5L124.7,328Z" fill="#ee2842"/>
        <path d="M306,328V156H276a19,19,0,0,0-16.45,9.5L165.75,328Z" fill="#001964"/>
        <polygon points="235.74 328 306 328 306 206.31 235.74 328" fill="#065dba"/>
    </g>
    <path d="M306,38H156.72L116,108.52l60.11,104.11a4.82,4.82,0,0,0,4.17,2.41H300.5l5.5-9.52Z" fill="url(#hero-image)"/>
</svg>
