<svg xmlns="http://www.w3.org/2000/svg" viewBox="0 0 66.55 82.33">
    <g class="gfx_hero-provider">
        <path
            class="fill--b-blue"
            d="M66.55,17,56.76,0H9.58a16.67,16.67,0,0,0,.67,15.35L45.82,77a3.12,3.12,0,0,0,2.68,1.55,3.7,3.7,0,0,0,2.1-1.67L66.55,49.21Z"
            fill="#b1f5ff"
        />
        <path
            class="fill--off-white"
            d="M60.61,59.29,66.55,49V18.33H35.07L29.84,27.4a9,9,0,0,0,0,9L42.19,57.79a3,3,0,0,0,2.6,1.5Z"
            fill="#f0fdff"
        />
        <path
            class="fill--d-blue" d="M66.55,0H27.07a8.94,8.94,0,0,0,.8,7.12L39,26.43h27.5l0-.08Z"
            fill="#001964"
        />
        <path
            class="fill--v-red" d="M66.55,8.73H51.49a4,4,0,0,0-3.46,2L40.09,24.49l0,0L39,26.43,54.27,52.85a3,3,0,0,0,2.6,1.5h9.68Z"
            fill="#ee2842"
        />
        <path
            class="fill--red" d="M66.55,10.84H54.92a3.3,3.3,0,0,0-2.86,1.65L44.5,25.59l7.56,13.09a3.28,3.28,0,0,0,2.86,1.65H66.55Z"
            fill="#c5050c"
        />
    </g>
</svg>
