<svg xmlns="http://www.w3.org/2000/svg" viewBox="0 0 64 64">
  <g class="icon-phone">
        <path class="icon-phone__phone"
            d="M17.07,58h0a2,2,0,0,1-2-1.59l-2.48-9.24A2,2,0,0,1,14,
                44.72l9.17-2.45a2,2,0,0,1,1.51.2L32.62,47a31,31,0,0,0,8.56-9.16h0c.34-.56.65-1.14,1-1.72a30.37,30.37,0,0,0,3-9.56L37,
                21.88A2,2,0,0,1,36,20.66l-2.57-9.55a2,2,0,0,1,1.41-2.45l9.71-2.59a2,2,0,0,1,2.3,1,28.84,28.84,0,0,1,3.09,14c0,
                1-.1,2.05-.22,3.08A38.44,38.44,0,0,1,45.69,38c-.34.65-.69,1.29-1.06,1.92l-.07.11A37.72,37.72,0,0,1,22.68,
                57a28.34,28.34,0,0,1-3.13.72,23.25,23.25,0,0,1-2.34.26ZM17,48.07l1.55,5.77.34-.05a24.33,24.33,0,0,0,2.66-.6,
                34.17,34.17,0,0,0,7.82-3.42l-5.94-3.42ZM39.69,18.82l6.22,3.59c0-.48.06-.95.07-1.42a24.8,24.8,0,0,0-2-10.63L37.85,12Z"
        />
  </g>
</svg>
