<svg xmlns="http://www.w3.org/2000/svg" width="64" height="64" viewBox="0 0 64 64"><defs><style>.a{fill:#065dba;opacity:0;}.a,.b{stroke:#065dba;stroke-linejoin:round;stroke-width:3px;}.b,.d{fill:none;}.c{stroke:none;}</style></defs><g class="a"><rect class="c" width="64" height="64"/><rect class="d" x="1.5" y="1.5" width="61" height="61"/></g><path class="b" d="M2.626,50.157h0L0,40.392l9.58-2.559,9.385,5.4A34.319,34.319,0,0,0,29.621,32.266,37.524,37.524,0,0,1,7.9,49.223a26.114,26.114,0,0,1-3.024.688,20.961,20.961,0,0,1-2.253.246Zm27-17.891a33.683,33.683,0,0,0,4.567-13.979l-9.726-5.6h0L21.778,2.707,31.921,0A28.046,28.046,0,0,1,34.93,13.627c-.026,1-.1,2.017-.224,3.037a37.694,37.694,0,0,1-5.084,15.6Z" transform="translate(12.1 7.054)"/></svg>