<svg xmlns="http://www.w3.org/2000/svg" viewBox="0 0 88.71 92.26" preserveAspectRatio="xMinYMid slice">
  <polygon points="68.36 78.65 22.83 -0.04 -25.01 -0.04 -25.01 41.16 -3.32 78.65 68.36 78.65" fill="#e2f7fa" opacity="0.25"/>
  <polygon points="13.3 32.82 13.3 72.37 39.66 72.37 62.49 32.82 13.3 32.82" fill="#001964"/>
  <path d="M62.49,32.82l-3.8-6.54H42.5l-4-7a5.31,5.31,0,0,0-4.6-2.66H-25V35l1.87-2.19Z" fill="#ee2842"/>
  <path d="M-25,38.84l11.89-19.19a2.6,2.6,0,0,1,2.23-1.25H16.48a3.81,3.81,0,0,1,3.1,1.77L30.37,38.75Z" fill="#001964"/>
  <polygon points="-25.01 31.85 13.63 31.85 13.63 56.55 -18.47 56.55 -25.01 45.29 -25.01 31.85" fill="#065dba"/>
  <polygon points="39.66 72.37 16.22 31.85 -13.95 31.85 9.49 72.37 39.66 72.37" fill="#065dba"/>
</svg>
