<svg xmlns="http://www.w3.org/2000/svg" viewBox="0 0 92 98">
    <g class="gfx-card-bg-4">
        <path d="M62.37,19.31H29.17L17,40.33a15.47,15.47,0,0,0,0,15.46l12.14,21H61.75a1.09,1.09,0,0,0,.94-.54L79,48.06Z"
            fill="#e00e2a"/>
        <path d="M69.71.54H44.39a7.57,7.57,0,0,0-6.56,3.78L24.89,26.73a5.21,5.21,0,0,0,0,5.21L37.36,53.53a9.2,9.2,0,0,0,8,4.59h22.5A9.37,9.37,0,0,0,76,53.41L89,31a3.29,3.29,0,0,0,0-3.27L75,3.6A6.11,6.11,0,0,0,69.71.54Z"
            fill="#ee2842"/>
        <path d="M19.82,27.3H11.65a.52.52,0,0,0-.46.27L7.1,34.64,11.34,42h8.35a.21.21,0,0,0,.19-.11l4-7a.51.51,0,0,0,0-.53Z"
            fill="#b1f5ff"/>
        <path d="M11.34,42H6.85L4.6,45.87l2.25,3.89h4.42a.11.11,0,0,0,.1-.06l2.21-3.83Z"
            fill="#31c4f0"/>
        <path d="M44.34,60.91H26.62a.52.52,0,0,0-.46.27L17.6,76a1.58,1.58,0,0,0,0,1.6L26,92.12a1.08,1.08,0,0,0,.93.54H44.35a.56.56,0,0,0,.43-.24l9-15.64-9-15.6A.53.53,0,0,0,44.34,60.91Z"
            fill="#092884"/>
    </g>
</svg>
