<svg xmlns="http://www.w3.org/2000/svg" viewBox="0 0 119 84">
    <g class="gfx-card-bg-2">
        <polygon class="fill__p-blue"
            points="50.23 0 1.2 84.92 121 84.92 121 0 50.23 0"
            fill="#e2f7fa"/>
        <polygon class="fill__v-red"
            points="121 0 121 20.54 38.35 20.54 26.49 0 121 0"
            fill="#ee2842"/>
        <path class="fill__v-red"
            d="M121,32.07V0H80.28A5,5,0,0,0,76,2.5L58.88,32.07Z"
            fill="#c5050c"/>
        <path class="fill__v-blue"
            d="M121,11.57H45a2.55,2.55,0,0,0-2.22,1.29l-4.44,7.68,6,10.31a2.41,2.41,0,0,0,2.08,1.2H121Z"
            fill="#31c4f0"/>
        <path class="fill__blue"
            d="M121,11.57H45a2.55,2.55,0,0,0-2.22,1.29l-4.44,7.68H121Z"
            fill="#065dba"/>
        <path class="fill__d-blue"
            d="M70.72,11.55,58.92,32h0l0,0,0,0h0L83,73.81a3.48,3.48,0,0,0,3,1.75h35v-64Z"
            fill="#001964"/>
    </g>
</svg>
