<svg xmlns="http://www.w3.org/2000/svg" viewBox="0 0 119 84">
    <polygon class="gfx-card__p-blue" points="55.48 0 6.45 84.92 126.32 84.92 167.45 0 55.48 0" fill="#e2f7fa"/>
    <polygon class="gfx-card__v-red" points="128.26 0 128.26 20.54 43.61 20.54 31.74 0 128.26 0" fill="#ee2842"/>
    <path class="gfx-card__red" d="M128.26,32.07V0H85.53A5,5,0,0,0,81.2,2.5L64.13,32.07Z" fill="#c5050c"/>
    <path class="gfx-card__v-blue" d="M128.26,11.57h-78A2.57,2.57,0,0,0,48,12.86l-4.43,7.68,6,10.31a2.42,2.42,0,0,0,2.09,1.2h76.61Z" fill="#31c4f0"/>
    <path class="gfx-card__blue" d="M128.26,11.57h-78A2.57,2.57,0,0,0,48,12.86l-4.43,7.68h84.65Z" fill="#065dba"/>
    <path class="gfx-card__d-blue" d="M128.26,32V75.56h-37a3.49,3.49,0,0,1-3-1.75L64.13,32Z" fill="#001964"/>
    <polygon class="gfx-card__d-blue" points="128.26 32.06 128.26 11.55 75.98 11.55 64.13 32.06 128.26 32.06" fill="#001964"/> 
</svg>
