<svg xmlns="http://www.w3.org/2000/svg" viewBox="0 0 86 65">
    <!--
    Notes:
        * full-bleed-hide: should be hidden for full-bleed cards
        * full-bleed-show: should be shown for full-bleed cards
    -->
    <g class="gfx-card-bg-1">
        <polygon
            class="fill__d-blue"
            points="29.4,19.3 29.4,64 59.2,64 85,19.3"
            fill="#001964"/>
        <path
            class="fill__v-red"
            d="M85,19.3l-4.3-7.4H62.4L57.9,4c-1.1-1.9-3.1-3-5.2-3H-2v18.3H85z"
            fill="#ee2842"/>
        <path
            class="full-bleed--hide fill__d-blue"
            d="M-2,26.1V3h35c1.4,0,2.7,0.8,3.5,2l12.2,21L-2,26.1z"
            fill="#001964"/>
        <path
            class="full-bleed--show fill__d-blue"
            d="M-2,26.1V6h36.2c3.8,0,7.3,2,9.2,5.3L51.9,26L-2,26.1z"
            fill="#001964"/>
        <rect class="full-bleed--hide fill__blue"
            y="18.16"
            x="-2"
            width="29.7" height="45.84"
            fill="#065dba"/>
        <polygon class="fill__blue"
            points="59.2,64 32.7,18.2 -1.4,18.2 25.1,64"
            fill="#065dba"/>
    </g>
</svg>
