<svg xmlns="http://www.w3.org/2000/svg" xmlns:xlink="http://www.w3.org/1999/xlink" viewBox="0 0 67.4 92.26">
  <defs>
    <linearGradient id="linear-gradient" x1="24.13" y1="99.25" x2="24.13" y2="32.8" gradientUnits="userSpaceOnUse">
      <stop offset="0" stop-opacity="0"/>
      <stop offset="0.91" stop-color="#05223e" stop-opacity="0.13"/>
    </linearGradient>
  </defs>
  <polygon points="67.4 99.25 67.4 32.8 19.24 32.8 -19.13 99.25 67.4 99.25" fill="url(#linear-gradient)"/>
  <polygon points="67.4 42.11 21.22 36.48 0.16 0 67.4 0 67.4 42.11" fill="#e2f7fa"/>
  <path d="M67.4,16.72H52a3,3,0,0,0-2.6,1.5L35.74,41.83,67.4,50Z" fill="#ee2842"/>
  <path d="M10.49,32.82H67.4V61.05H28.34A2.68,2.68,0,0,1,26,59.71Z" fill="#ee2842"/>
  <path d="M48.87,25.83h-25a1,1,0,0,0-.87.5l-3.76,6.51H52.77Z" fill="#065dba"/>
  <path d="M19.24,32.85,33.48,57.3a1,1,0,0,0,.86.5H67.25l.15-24.95Z" fill="#092884"/>
  <path d="M67.4,25.78H45l-9,15.51a1,1,0,0,0,0,1L54.6,74.38a3,3,0,0,0,2.6,1.5H67.4Z" fill="#001964"/>
</svg>
