<svg width="100%" height="12" xmlns:xlink="http://www.w3.org/1999/xlink">
    <defs>
    <!-- Using nested SVGs to allow for different aspect ratio preservations.
        Forces the hexagons to maintain aspect ratio, while the bar stretches -->
        <svg id="hex-bar__right"
            height="100%" width="100%"
            viewBox="0 0 31 9.01"
            preserveAspectRatio="xMaxYMid"
        >
            <polygon points="28.4 0.02 23.2 0.02 20.59 4.53 23.2 9.03 28.4 9.03 31 4.53 28.4 0.02"/>
        </svg>
        <svg id="hex-bar__left"
            height="100%" width="100%"
            viewBox="0 0 31 9.01"
            preserveAspectRatio="xMinYMid"
        >
            <polygon points="7.8 0 2.6 0 0 4.51 2.6 9.01 7.8 9.01 10.4 4.51 7.8 0"/>
        </svg>
        <!-- <marker id="hex-right" viewBox="0 0 10.41 9.01" refX="9.41" refY="4.505" markerWidth="20.82" markerHeight="18.02"
         preserveAspectRatio="xMinYMin meet" >
          <polygon points="7.8 0 2.6 0 0 4.51 2.6 9.01 7.8 9.01 10.4 4.51 7.8 0"/>
        </marker>
        <marker id="hex-left" viewBox="0 0 10.41 9.01" refX="1" refY="4.505" markerWidth="20.82" markerHeight="18.02"
         preserveAspectRatio="xMinYMin meet" >
          <polygon points="7.8 0 2.6 0 0 4.51 2.6 9.01 7.8 9.01 10.4 4.51 7.8 0"/>
        </marker> -->
    </defs>
    <svg>
        <!-- <rect width="100%" height="22" x="0" y="-5" fill="none"/>
        <line x1="2" x2="95%" y1="50%" y2="50%"
            marker-start="url(#hex-left)" marker-end="url(#hex-right)"
            stroke="currentColor" stroke-width="1" /> -->
        <rect class="hex-bar__bar"
            x="2.5"
            y="47.25%"
            width="98%" height="5.5%"
        />
        <use xlink:href="#hex-bar__left" />
        <use xlink:href="#hex-bar__right" /> -->
     </svg>
</svg>
