<svg xmlns="http://www.w3.org/2000/svg" viewBox="0 0 64 64">
    <g class="icon-wifi">
        <path
            class="icon-wifi__wave icon-wifi__wave-top"
            d="M8.86,27.86a2,2,0,0,1-1.41-.59,2,2,0,0,1,0-2.83,34.72,34.72,0,0,1,49.1,0,2,2,0,0,1,0,2.83,2,2,0,0,1-2.83,0,30.71,30.71,0,0,0-43.44,0A2,2,0,0,1,8.86,27.86Z"
        />
        <path
            class="icon-wifi__wave icon-wifi__wave-bottom"
            d="M19,38a2,2,0,0,1-1.42-.59A2,2,0,0,1,17,36a2,2,0,0,1,.58-1.42,20.45,20.45,0,0,1,28.86,0A2,2,0,0,1,47,36a2,2,0,0,1-.58,1.41,2,2,0,0,1-2.83,0,16.44,16.44,0,0,0-23.2,0A2,2,0,0,1,19,38Z"
        />
        <path
            class="icon-wifi__base"
            d="M37.83,44.68a9.39,9.39,0,0,0-11.66,0A.52.52,0,0,0,26,45a.5.5,0,0,0,.15.38l5.52,5.52a.48.48,0,0,0,.7,0l5.52-5.52A.54.54,0,0,0,38,45,.52.52,0,0,0,37.83,44.68Z"
        />
    </g>
</svg>
